<?xml version="1.0" encoding="UTF-8"?>
<svg id="Camada_2" data-name="Camada 2" xmlns="http://www.w3.org/2000/svg" viewBox="0 0 1386.52 1378">
  <defs>
    <style>
      .cls-1, .cls-2 {
        fill: #fff;
      }

      .cls-1, .cls-3 {
        stroke-width: 0px;
      }

      .cls-4 {
        fill: none;
        stroke: #fff;
        stroke-width: 50px;
      }

      .cls-4, .cls-2 {
        stroke-miterlimit: 10;
      }

      .cls-2 {
        stroke: #5506e3;
      }

      .cls-3 {
        fill: #5506e3;
      }
    </style>
  </defs>
  <g id="Layer_1" data-name="Layer 1">
    <g>
      <ellipse class="cls-4" cx="693.26" cy="689" rx="668.26" ry="664"/>
      <polygon class="cls-3" points="445.81 1000.33 728.78 1187 986.58 1112.33 1000.85 1043 986.58 843 932.25 693.67 876.21 693.67 856.85 739 816.85 709.67 763.52 693.67 755.52 739 723.33 709.67 690.18 689 648 712.33 648 744.33 568.85 512.78 528.85 479.74 492.17 512.78 492.17 579 566.18 832.9 576.85 915 595.55 973.67 568.85 960.33 507.52 957.67 464.85 965.67 427.52 981.67 445.81 1000.33"/>
      <path class="cls-2" d="m1006.82,835.08c-.74-8.06-2.77-15.92-6.04-23.38l-38.12-86.62c-13.8-27.83-52.7-50.59-88.65-40.16-11.15,3.23-20.83,9.1-28.57,16.76-14.52-18.05-37.02-28.25-60.22-25.55-15.94,1.95-30.5,9.32-41.27,20.69-14.52-15.58-35.61-24.38-56.77-21.66-13.43,1.62-25.89,7.1-35.91,15.56l-52.68-170.36c-10.43-35.65-47.98-56.33-83.66-46.02-28.09,8.06-47.66,33.09-48.69,62-.34,7.12.5,14.36,2.41,21.15.48,1.76,46.74,178.36,78.26,313.31q5.98,25.51,7.88,32.2c1.3,4.61,3.53,12.51,9.5,35.13-21.62-4.09-47.04-5.61-76.66-5.65-15.7.16-29.38,1.72-41.25,4.85-.2.08-.42.16-.64.2-19.79,5.49-33.77,22.18-35.75,42.79-2.01,20.93,8.9,40.22,27.79,49.17.28.12,5.29,2.37,5.59,2.49,9.62,4.01,20.57,9.14,32.3,15.56,13.23,7.34,31.32,18.13,50.41,29.48,33.79,20.13,68.7,40.95,89.37,50.45,37.34,17.16,42.53,19.77,102.63,54.26,14.24,8.18,30.14,12.39,46.26,12.39,7.24,0,14.54-.84,21.72-2.57l170.24-40.75c43.23-10.35,73.19-50.25,71.16-95.89l-20.67-219.85Zm-60.04,275.79l-170.24,40.75c-12.93,3.05-26.43,1.12-37.96-5.49-61.4-35.25-67.66-38.34-105.93-55.94-18.69-8.58-54.18-29.76-85.5-48.41-19.53-11.63-38.02-22.66-51.63-30.2-13.25-7.26-25.53-13.03-36.31-17.53l-1.74-.83-2.09-.86c-4.37-2.05-4.69-5.98-4.47-8.1.2-2.17,1.26-5.98,6-7.18.44-.12.9-.24,1.32-.4,7.88-1.97,17.91-3.01,29.84-3.13,42.95.32,74.77,3.85,97.43,13.03,7.2,2.97,15.42,1.48,21.25-3.57,5.84-5.09,8.28-13.07,6.34-20.57-13.21-51.05-16.92-64.13-18.77-70.62q-1.78-6.3-7.4-30.36c-31.64-135.49-78.04-312.61-78.6-314.75-.8-2.83-1.16-5.71-1.02-8.64.42-11.37,8.04-21.11,19.03-24.26,13.92-4.01,28.77,4.05,32.97,18.41l70.46,227.91c.06.2.12.36.16.56l17.69,61.12.06.16c.02.12.06.24.1.36t.02.08c.02.08.04.12.06.2.16.04.06.08.04.08,3.47,10.43,14.52,16.44,25.21,13.27.94-.28,1.84-.6,2.71-1t.04-.04h.08s.02-.04.04-.04h.06v-.04h.06s.04-.04.06-.04h.04l.02-.04h.06s.02-.04.04-.04h.02c.18.08.08-.04.06-.04h.04c.08.12.04-.04.04-.04h.04s0-.04.06-.04h.02s.02-.08.06-.04h.02s.06-.04.06-.04h.02s.02-.04.04-.04h.02c.26.12.04-.04.06-.04h.04s.06-.04.06-.04c.02,0,.04-.04.04-.04h.02c.24.04.06-.04.06-.04h.04c.14.08.04-.04.06-.04s.04-.04.06-.04.08-.04.06-.04h.04c.1.04.04-.04.06-.04s.04-.04.06-.04.04,0,.06-.04h.04c.08-.04.04-.04.06-.04s.04-.04.06-.04.04-.04.06-.04.02,0,.04-.04h.06s.04-.04.06-.04.04-.04.04-.04h.02c2.09-1.24,3.89-2.85,5.37-4.69.02,0,.02-.04.04-.04t.04-.04l.04-.08s.02,0,.04-.04c.02,0,.02-.04.04-.04,0,0,.02-.04.04-.04,0-.04.02-.04.02-.04h.02s.02-.04.02-.08h.02s.02,0,.02-.04h.02l.02-.04s.02-.04.04-.04c.14-.28.06-.08.04-.08t.04-.04l.02-.04h.02l.02-.04c0,.12.04-.04.04-.04v-.04s.02,0,.04-.04c.02,0,.02-.04.04-.04s.02-.04.04-.04c0-.04.02-.04.02-.04l.02-.04s.02,0,.02-.04c.02,0,.02-.04.04-.04t.04-.04s.02-.04.02-.04l.02-.04s.02,0,.02-.04c.02,0,.02-.04.04-.04t.04-.04v-.04h.02s.02-.04.02-.04c0,0,.02,0,.02-.04h.02s0-.04.02-.04l.02-.04s.02-.04.02-.04c0,0,.02,0,.02-.04h.02s0-.04.02-.04t.04-.04v-.04h.02s.02-.04.02-.04l.02-.04s.02-.04.04-.04v-.04h.02l.02-.04.02-.04s.02-.04.02-.04h.02s.02-.04.02-.04l.02-.04c.04.12.02-.04.02-.04.02,0,.02-.04.02-.04h.02s.02-.04.02-.04l.02-.04.02-.04s.02,0,.02-.04h.02s0-.04.02-.04.02-.04.02-.04c0-.04.02-.04.02-.04,0,0,.02,0,.02-.04-.02-.04.04-.04.02-.04t.02-.04h.02s0-.04.02-.04c.02.04.02-.04.02-.04,0-.04.02-.04.02-.04l.02-.04.02-.04s.02,0,.02-.04h.02v-.04s.04-.04.04-.04c0-.04.02-.04.02-.04v-.04c.06,0,.06-.04.04-.04l.02-.04.02-.04s.02-.04.02-.04c0,0,.02,0,.02-.04.02,0,.02-.04.02-.04h.02s0-.04.02-.04v-.04s.02,0,.02-.04h.02s0-.04.02-.04c0-.04.02-.04.02-.08t.04-.04l.02-.04c.02-.08.06-.08.04-.08l.02-.04s.02-.04.02-.04v-.04s.02,0,.04-.04l.02-.04s.02-.04.02-.08c0,.04.06-.08.06-.08,2.13-4.41,2.71-9.58,1.22-14.68l-9.73-33.73c-.08-.28-.18-.6-.28-.88l-7.84-27.07c-1.82-7.3-.52-15,3.67-21.25,4.37-6.54,11.17-10.65,19.19-11.61,12.49-1.6,24.92,7.64,28.89,21.32l15.84,54.78c3.17,10.87,14.5,17.32,25.43,14.04,9-2.61,14.86-10.83,14.84-19.73,0-1.88-.26-3.81-.8-5.69l-8.78-30.36c-2.05-7.46-.76-15.4,3.53-21.8,4.33-6.52,11.15-10.63,19.15-11.59,12.29-1.64,24.94,7.62,28.89,21.28l16.78,57.83c3.15,10.87,14.46,17.16,25.43,14,10.89-3.17,17.16-14.56,14.02-25.43l-8.02-27.71c-3.89-13.92,4.23-28.49,18.17-32.52,14.74-4.09,34.45,6.9,40.04,18.13l37.68,85.66c1.48,3.41,2.41,7.02,2.75,10.75l20.61,218.85c1.1,25.02-15.62,47.36-39.74,53.14Z"/>
      <path class="cls-1" d="m471.63,366.83c2.33,0,4.71-.4,7.02-1.24,10.67-3.87,16.16-15.66,12.27-26.31l-51.65-141.89c-3.85-10.67-15.72-16.14-26.31-12.27-10.67,3.87-16.16,15.66-12.27,26.31l51.65,141.89c3.03,8.34,10.91,13.51,19.29,13.51Z"/>
      <path class="cls-1" d="m373.7,425.38l-136.83-63.81c-10.25-4.73-22.48-.3-27.29,9.93-4.79,10.29-.34,22.5,9.93,27.29l136.83,63.81c2.81,1.3,5.75,1.92,8.66,1.92,7.74,0,15.14-4.39,18.63-11.85,4.79-10.29.34-22.5-9.93-27.29Z"/>
      <path class="cls-1" d="m351.68,569.17l-141.87,51.63c-10.67,3.87-16.16,15.66-12.27,26.31,3.03,8.34,10.91,13.51,19.29,13.51,2.33,0,4.71-.4,7.02-1.24l141.87-51.63c10.67-3.87,16.16-15.66,12.27-26.31-3.89-10.65-15.74-16.18-26.31-12.27Z"/>
      <path class="cls-1" d="m694.51,466.22c3.03,8.34,10.91,13.51,19.29,13.51,2.33,0,4.71-.4,7.02-1.24l141.87-51.63c10.67-3.87,16.16-15.66,12.27-26.31-3.87-10.67-15.72-16.14-26.31-12.27l-141.87,51.63c-10.67,3.87-16.16,15.66-12.27,26.31Z"/>
      <path class="cls-1" d="m607.4,371.2c2.81,1.3,5.75,1.92,8.66,1.92,7.74,0,15.14-4.39,18.63-11.85l63.83-136.83c4.79-10.29.34-22.5-9.93-27.29-10.23-4.73-22.46-.34-27.29,9.93l-63.83,136.83c-4.79,10.29-.34,22.5,9.93,27.29Z"/>
    </g>
  </g>
</svg>