<svg width="66" height="66" viewBox="0 0 66 66" fill="none" xmlns="http://www.w3.org/2000/svg">
<path d="M19.7837 29.3198C19.7831 28.1638 19.5298 27.0219 19.0416 25.9741C18.5534 24.9263 17.842 23.998 16.9574 23.2542C16.0727 22.5104 15.0361 21.9691 13.9203 21.6682C12.8045 21.3673 11.6364 21.3141 10.4978 21.5124C9.35928 21.7106 8.27783 22.1555 7.32928 22.8158C6.38072 23.4762 5.58799 24.336 5.00663 25.3351C4.42527 26.3342 4.06935 27.4483 3.9638 28.5995C3.85824 29.7506 4.00561 30.911 4.39559 31.9992H19.3172C19.6263 31.1397 19.7841 30.2332 19.7837 29.3198Z" fill="#6100FF"/>
<path d="M36.9542 9.35733C35.9663 9.35707 34.9871 9.54214 34.0674 9.90294V24.6692C35.1528 25.0943 36.3186 25.2746 37.4816 25.1975C38.6447 25.1203 39.7764 24.7875 40.7962 24.2227C41.816 23.658 42.6987 22.8752 43.3814 21.9302C44.0642 20.9852 44.5301 19.9012 44.7461 18.7554C44.9621 17.6097 44.9229 16.4304 44.6311 15.3015C44.3394 14.1727 43.8023 13.1221 43.0582 12.2246C42.3141 11.3272 41.3813 10.6049 40.3262 10.1093C39.2712 9.61368 38.1198 9.35692 36.9542 9.35733Z" fill="#6100FF"/>
<path d="M29.4563 42.6606C28.2995 42.6612 27.1569 42.9151 26.1086 43.4045C25.0604 43.8938 24.1319 44.6067 23.3884 45.4931C22.6448 46.3796 22.1043 47.418 21.8047 48.5357C21.5051 49.6533 21.4536 50.823 21.654 51.9626C21.8543 53.1022 22.3016 54.1841 22.9644 55.1325C23.6273 56.0808 24.4896 56.8725 25.4908 57.452C26.492 58.0315 27.608 58.3848 28.7602 58.4871C29.9125 58.5893 31.0731 58.4381 32.1607 58.0439V43.1348C31.2937 42.8206 30.3784 42.6602 29.4563 42.6606Z" fill="#6100FF"/>
<path d="M49.5329 57.7855C53.9106 57.7855 57.4594 54.2357 57.4594 49.8568C57.4594 45.4778 53.9106 41.928 49.5329 41.928C45.1553 41.928 41.6064 45.4778 41.6064 49.8568C41.6064 54.2357 45.1553 57.7855 49.5329 57.7855Z" fill="#6100FF"/>
<path d="M31.9357 1H1V31.9445H31.9357V1Z" stroke="#6100FF" stroke-width="1.93756" stroke-miterlimit="10"/>
<path d="M65.0001 1H34.0645V31.9445H65.0001V1Z" stroke="#6100FF" stroke-width="1.93756" stroke-miterlimit="10"/>
<path d="M31.9357 34.0555H1V65H31.9357V34.0555Z" stroke="#6100FF" stroke-width="1.93756" stroke-miterlimit="10"/>
<path d="M65.0001 34.0555H34.0645V65H65.0001V34.0555Z" stroke="#6100FF" stroke-width="1.93756" stroke-miterlimit="10"/>
</svg>
