<svg width="145" height="40" viewBox="0 0 145 40" fill="none" xmlns="http://www.w3.org/2000/svg">
<rect x="6.34961" y="12.2034" width="6.34921" height="6.77966" rx="3.1746" fill="#6100FF"/>
<rect x="6.34961" y="12.2034" width="6.34921" height="6.77966" rx="3.1746" fill="#6100FF"/>
<rect x="27.9365" y="9.49146" width="5.07936" height="5.42373" rx="2.53968" fill="#6100FF"/>
<rect x="27.9365" y="9.49146" width="5.07936" height="5.42373" rx="2.53968" fill="#6100FF"/>
<rect y="21.0171" width="10.1587" height="10.8475" rx="5.07936" fill="#6100FF"/>
<rect y="21.0171" width="10.1587" height="10.8475" rx="5.07936" fill="#6100FF"/>
<rect x="12.0635" y="23.7288" width="7.61905" height="8.13559" rx="3.80952" fill="#6100FF"/>
<rect x="12.0635" y="23.7288" width="7.61905" height="8.13559" rx="3.80952" fill="#6100FF"/>
<rect x="34.9209" y="27.1187" width="7.61905" height="8.13559" rx="3.80952" fill="#6100FF"/>
<rect x="34.9209" y="27.1187" width="7.61905" height="8.13559" rx="3.80952" fill="#6100FF"/>
<rect x="34.2861" y="10.8474" width="11.4286" height="12.2034" rx="5.71429" fill="#6100FF"/>
<rect x="34.2861" y="10.8474" width="11.4286" height="12.2034" rx="5.71429" fill="#6100FF"/>
<rect x="20.3174" y="26.4407" width="12.6984" height="13.5593" rx="6.34921" fill="#6100FF"/>
<rect x="20.3174" y="26.4407" width="12.6984" height="13.5593" rx="6.34921" fill="#6100FF"/>
<rect x="12.6982" width="13.9683" height="14.9153" rx="6.98413" fill="#6100FF"/>
<rect x="12.6982" width="13.9683" height="14.9153" rx="6.98413" fill="#6100FF"/>
<path d="M14.6033 16.2712C15.9866 15.1208 15.2382 11.5254 15.2382 11.5254L18.5716 12.5423C18.5716 12.5423 20.635 10.8474 20.9525 12.2034C21.27 13.5593 21.9049 13.5593 22.8573 14.5762C23.8096 15.5932 24.8764 15.8023 26.0319 15.2542C26.9168 14.8344 28.889 12.2034 28.889 12.2034H30.7938C30.7938 12.2034 30.7107 17.0139 33.016 16.9491C35.0335 16.8924 36.1906 13.5593 36.1906 13.5593V17.6271L38.7303 23.0508C38.7303 23.0508 34.9208 24.0678 36.1906 25.4237C37.4604 26.7796 38.7303 27.7966 38.7303 27.7966L37.7779 31.1864C37.7779 31.1864 37.143 34.5762 34.9208 30.5084C32.6985 26.4406 31.4287 28.4745 30.3176 29.8305C29.2065 31.1864 27.3811 29.8305 27.3811 29.8305L23.8096 30.5084C23.8096 30.5084 20.9525 29.8305 20.635 27.7966C20.3176 25.7627 18.5716 29.8305 18.5716 29.8305H15.635L13.9684 28.4745C13.9684 28.4745 13.2655 25.8999 12.0636 24.7457C11.0496 23.772 9.84139 24.7457 9.84139 24.7457L3.49219 23.7288C5.22785 22.9345 11.1112 20 8.88901 16.9491C6.66679 13.8983 12.0636 16.9491 12.0636 16.9491C12.0636 16.9491 13.7967 16.9419 14.6033 16.2712Z" fill="#6100FF"/>
<path d="M63.9765 10.0048V13.1848H56.0865V18.1948H63.3165V21.3448H56.0865V28.9048H51.9765V10.0048H63.9765ZM66.7386 28.9048V7.48478H70.6686V28.9048H66.7386ZM83.6222 14.5948H87.6123V28.9048H84.6422L84.2222 27.2848H84.1022C83.8822 27.5048 83.6222 27.7348 83.3222 27.9748C83.0422 28.1948 82.7022 28.4048 82.3022 28.6048C81.9222 28.7848 81.4822 28.9348 80.9822 29.0548C80.5022 29.1748 79.9622 29.2348 79.3622 29.2348C77.8222 29.2348 76.6022 28.8048 75.7022 27.9448C74.8222 27.0848 74.3822 25.8148 74.3822 24.1348V14.5948H78.3722V23.8048C78.3722 24.6648 78.5722 25.2848 78.9722 25.6648C79.3922 26.0448 79.9222 26.2348 80.5622 26.2348C81.2822 26.2348 81.8922 26.0848 82.3922 25.7848C82.9122 25.4848 83.3222 25.1348 83.6222 24.7348V14.5948ZM91.5287 28.9048V14.5948H95.5187V28.9048H91.5287ZM93.5387 11.5348C92.8587 11.5348 92.3287 11.3448 91.9487 10.9648C91.5687 10.5648 91.3787 10.0748 91.3787 9.49478C91.3787 8.91478 91.5687 8.43478 91.9487 8.05478C92.3287 7.65478 92.8587 7.45478 93.5387 7.45478C94.1987 7.45478 94.7187 7.65478 95.0987 8.05478C95.4987 8.43478 95.6987 8.91478 95.6987 9.49478C95.6987 10.0748 95.5087 10.5648 95.1287 10.9648C94.7487 11.3448 94.2187 11.5348 93.5387 11.5348ZM108.73 7.48478H112.72V28.9048H109.87L109.45 27.3448H109.3C108.94 27.8448 108.42 28.2848 107.74 28.6648C107.08 29.0448 106.21 29.2348 105.13 29.2348C104.23 29.2348 103.39 29.0648 102.61 28.7248C101.83 28.3848 101.15 27.8948 100.57 27.2548C99.9897 26.6148 99.5297 25.8348 99.1897 24.9148C98.8697 23.9948 98.7097 22.9448 98.7097 21.7648C98.7097 20.6248 98.8597 19.5948 99.1597 18.6748C99.4597 17.7548 99.8897 16.9748 100.45 16.3348C101.01 15.6748 101.7 15.1748 102.52 14.8348C103.34 14.4748 104.28 14.2948 105.34 14.2948C106.02 14.2948 106.66 14.3948 107.26 14.5948C107.88 14.7948 108.37 15.0548 108.73 15.3748V7.48478ZM108.73 18.3448C108.47 18.0248 108.13 17.7548 107.71 17.5348C107.29 17.3148 106.83 17.2048 106.33 17.2048C105.85 17.2048 105.39 17.2848 104.95 17.4448C104.53 17.6048 104.15 17.8648 103.81 18.2248C103.49 18.5648 103.23 19.0248 103.03 19.6048C102.83 20.1648 102.73 20.8548 102.73 21.6748C102.73 22.4748 102.82 23.1648 103 23.7448C103.18 24.3248 103.42 24.8048 103.72 25.1848C104.02 25.5648 104.37 25.8448 104.77 26.0248C105.19 26.2048 105.63 26.2948 106.09 26.2948C106.73 26.2948 107.27 26.1448 107.71 25.8448C108.17 25.5248 108.51 25.1548 108.73 24.7348V18.3448ZM129.144 22.7848H119.634V22.9048C119.634 24.0448 120.034 24.8948 120.834 25.4548C121.634 26.0148 122.664 26.2948 123.924 26.2948C124.724 26.2948 125.424 26.2148 126.024 26.0548C126.644 25.8948 127.204 25.7048 127.704 25.4848L128.424 28.2748C127.884 28.5348 127.204 28.7548 126.384 28.9348C125.564 29.1348 124.594 29.2348 123.474 29.2348C122.394 29.2348 121.374 29.0948 120.414 28.8148C119.474 28.5148 118.644 28.0648 117.924 27.4648C117.224 26.8648 116.664 26.1048 116.244 25.1848C115.824 24.2648 115.614 23.1648 115.614 21.8848C115.614 20.7448 115.784 19.7148 116.124 18.7948C116.464 17.8548 116.944 17.0548 117.564 16.3948C118.204 15.7348 118.964 15.2248 119.844 14.8648C120.724 14.4848 121.704 14.2948 122.784 14.2948C124.724 14.2948 126.264 14.8848 127.404 16.0648C128.564 17.2448 129.144 18.8948 129.144 21.0148V22.7848ZM125.064 20.0548C125.064 19.6748 125.014 19.3048 124.914 18.9448C124.834 18.5848 124.694 18.2748 124.494 18.0148C124.294 17.7348 124.044 17.5148 123.744 17.3548C123.444 17.1948 123.074 17.1148 122.634 17.1148C121.834 17.1148 121.174 17.3848 120.654 17.9248C120.134 18.4648 119.824 19.1948 119.724 20.1148L125.064 20.0548ZM131.951 28.9048V14.5948H135.041L135.491 17.1748C135.831 16.4148 136.371 15.7448 137.111 15.1648C137.851 14.5848 138.781 14.2948 139.901 14.2948C140.361 14.2948 140.771 14.3448 141.131 14.4448C141.491 14.5448 141.791 14.6648 142.031 14.8048L141.371 17.9548C141.151 17.8348 140.871 17.7348 140.531 17.6548C140.191 17.5548 139.791 17.5048 139.331 17.5048C138.351 17.5048 137.531 17.8348 136.871 18.4948C136.231 19.1348 135.911 20.1948 135.911 21.6748V28.9048H131.951Z" fill="#6100FF"/>
</svg>
