<svg width="64" height="64" viewBox="0 0 64 64" fill="none" xmlns="http://www.w3.org/2000/svg">
<g clip-path="url(#clip0_10_77)">
<path d="M42.913 32.0805L42.8689 33.0924C42.8304 33.4279 42.7753 33.7615 42.7293 34.097C42.6834 34.4324 42.575 34.7549 42.4997 35.0848C42.4244 35.4147 42.2867 35.7279 42.1801 36.0486C41.5447 37.7271 40.5119 39.2232 39.1717 40.4063C37.8316 41.5894 36.2249 42.4237 34.4918 42.8362C32.7587 43.2488 30.9519 43.2271 29.229 42.7732C27.5061 42.3192 25.9195 41.4466 24.6076 40.2317C23.4965 39.1979 22.6102 37.9426 22.0048 36.5453C21.3988 35.1362 21.0863 33.6165 21.0864 32.0805L21.1507 30.935C21.1985 30.5644 21.2646 30.177 21.3234 29.8008C21.3822 29.4245 21.5181 29.0594 21.6154 28.6887C21.7128 28.318 21.8817 27.9714 22.0177 27.6156C22.6249 26.2199 23.5117 24.9661 24.6223 23.9329C25.7215 22.9235 27.0099 22.1465 28.4116 21.6476C31.0904 20.7197 34.0213 20.8744 36.5896 22.0793C39.1578 23.2842 41.1641 25.4456 42.1875 28.1105C42.294 28.433 42.4134 28.7499 42.5089 29.0742C42.6044 29.3986 42.6687 29.734 42.7385 30.064C42.8083 30.3939 42.8396 30.7312 42.8781 31.0666L42.913 32.0805ZM42.643 32.0805C42.6442 30.0976 42.0617 28.1591 40.9694 26.5109C39.8771 24.8627 38.3242 23.579 36.5077 22.8227C34.6912 22.0663 32.693 21.8715 30.7666 22.2629C28.8402 22.6542 27.0725 23.6141 25.6876 25.0208C24.3079 26.4206 23.3692 28.2008 22.9898 30.1376C22.6103 32.0743 22.807 34.081 23.555 35.9052C24.303 37.7294 25.5691 39.2897 27.1938 40.3896C28.8185 41.4896 30.7293 42.0801 32.6858 42.087C35.3213 42.0914 37.8506 41.0396 39.7178 39.1628C41.585 37.2861 42.6372 34.7379 42.643 32.0786V32.0805Z" fill="#6100FF"/>
<path d="M44.3921 31.8925C44.4077 33.4351 44.1228 34.9656 43.5535 36.397C43.2695 37.1141 42.9248 37.805 42.5231 38.4622C42.1138 39.1201 41.6422 39.7363 41.1148 40.302C40.0246 41.4933 38.7119 42.455 37.2524 43.1317C35.7928 43.8085 34.2151 44.1869 32.6102 44.2453C31.0053 44.3036 29.4048 44.0407 27.9008 43.4716C26.3969 42.9025 25.0192 42.0386 23.8471 40.9295C23.2446 40.3516 22.6989 39.7161 22.2176 39.032C21.7307 38.3457 21.3196 37.6076 20.9919 36.8309C20.3222 35.2737 19.9766 33.5941 19.9766 31.8962C19.9766 30.1984 20.3222 28.5187 20.9919 26.9616C21.6627 25.4163 22.6343 24.0231 23.8489 22.8648C25.0222 21.7589 26.4 20.8977 27.9032 20.3305C29.4065 19.7633 31.0058 19.5013 32.6094 19.5594C34.2131 19.6175 35.7897 19.9946 37.2488 20.6692C38.708 21.3438 40.0211 22.3025 41.113 23.4905C41.6401 24.0553 42.1112 24.6709 42.5194 25.3285C42.9217 25.9855 43.2671 26.6765 43.5516 27.3936C44.1211 28.823 44.4067 30.3517 44.3921 31.8925ZM44.0456 31.8925C44.0505 29.0728 43.017 26.352 41.1463 24.2594C39.2755 22.1668 36.7012 20.8518 33.924 20.5704C31.1468 20.2889 28.3652 21.0611 26.1203 22.7366C23.8754 24.4122 22.3276 26.8713 21.7779 29.6359C21.2283 32.4004 21.7161 35.2726 23.1465 37.6939C24.5769 40.1152 26.8476 41.9126 29.517 42.7363C32.1863 43.5601 35.0636 43.3513 37.5891 42.1508C40.1146 40.9502 42.1078 38.8436 43.1811 36.2406C43.7489 34.8626 44.0426 33.3852 44.0456 31.8925Z" fill="#6100FF"/>
<path d="M45.5021 32.0819C45.5155 33.8068 45.1976 35.5175 44.5665 37.1167C43.9433 38.7288 43.0238 40.2033 41.8581 41.4601C40.3462 43.1075 38.458 44.3433 36.3637 45.056C34.2693 45.7687 32.0348 45.936 29.8616 45.5427C27.6884 45.1494 25.6449 44.2078 23.9155 42.8031C22.1861 41.3983 20.8252 39.5745 19.9556 37.4961C19.2372 35.7863 18.8667 33.9443 18.8667 32.0828C18.8667 30.2212 19.2372 28.3792 19.9556 26.6694C20.6748 24.9719 21.7185 23.4391 23.0251 22.1616C24.2961 20.9292 25.7917 19.9657 27.4264 19.3261C29.0612 18.6865 30.8029 18.3834 32.552 18.4341C34.3011 18.4848 36.0233 18.8883 37.6201 19.6215C39.2169 20.3547 40.657 21.4033 41.8581 22.7073C42.4413 23.3346 42.9641 24.0181 43.4193 24.7482C43.8674 25.4788 44.2513 26.2487 44.5665 27.0488C45.1976 28.6474 45.5155 30.3575 45.5021 32.0819ZM45.0954 32.0819C45.0988 28.9343 43.9596 25.8979 41.8995 23.5632C39.8394 21.2285 37.0055 19.7624 33.949 19.45C30.8925 19.1375 27.8319 20.0011 25.3623 21.8727C22.8927 23.7444 21.1906 26.4903 20.5871 29.5765C19.9836 32.6628 20.5217 35.8687 22.0969 38.5709C23.6721 41.2731 26.1718 43.2784 29.1097 44.1968C32.0477 45.1153 35.2141 44.8812 37.993 43.5402C40.7719 42.1991 42.9648 39.847 44.1452 36.9411C44.7706 35.4011 45.0935 33.7499 45.0954 32.0819Z" fill="#6100FF"/>
<path d="M46.9822 32.0857C46.9939 33.9685 46.6341 35.835 45.9232 37.5789C45.2202 39.3346 44.1844 40.9383 42.8725 42.3019C41.183 44.07 39.0802 45.3915 36.7529 46.148C34.4255 46.9045 31.9464 47.0723 29.5381 46.6362C27.1298 46.2001 24.8676 45.1739 22.9546 43.6496C21.0417 42.1253 19.5377 40.1507 18.5778 37.9029C17.7922 36.0641 17.3872 34.0857 17.3872 32.0867C17.3872 30.0876 17.7922 28.1092 18.5778 26.2704C19.3657 24.4415 20.5113 22.7879 21.9476 21.4067C24.0773 19.3759 26.7643 18.0238 29.6664 17.5226C32.5684 17.0214 35.5542 17.3939 38.2435 18.5925C39.1153 18.9843 39.9464 19.4605 40.7249 20.0144C41.4961 20.566 42.2161 21.1856 42.8762 21.8658C44.1876 23.2296 45.224 24.8324 45.9288 26.587C46.6383 28.333 46.9962 30.2016 46.9822 32.0857ZM46.5148 32.0857C46.5169 28.6537 45.2403 25.3437 42.9333 22.7992C40.6263 20.2547 37.4539 18.6577 34.0329 18.3187C30.6119 17.9797 27.1869 18.9231 24.424 20.9652C21.661 23.0074 19.7576 26.0024 19.0838 29.3678C18.4101 32.7333 19.0142 36.2286 20.7786 39.1741C22.5431 42.1196 25.3418 44.3046 28.6304 45.3044C31.9191 46.3042 35.4627 46.0472 38.5722 44.5834C41.6816 43.1196 44.1345 40.5537 45.454 37.3845C46.154 35.7052 46.5164 33.9047 46.5204 32.0857H46.5148Z" fill="#6100FF"/>
<path d="M48.0923 31.8993C48.0992 36.1014 46.4783 40.139 43.577 43.1469C40.6757 46.1548 36.7248 47.8937 32.5711 47.9908C29.3834 48.0719 26.2454 47.181 23.565 45.4342C20.8847 43.6873 18.7861 41.1652 17.5421 38.1958C16.7074 36.2043 16.2773 34.0633 16.2773 31.9002C16.2773 29.7371 16.7074 27.5962 17.5421 25.6046C18.7905 22.6391 20.89 20.1207 23.569 18.3751C26.248 16.6296 29.3833 15.7371 32.5692 15.8133C36.7193 15.9189 40.6644 17.6596 43.5638 20.6645C46.4632 23.6694 48.0875 27.7007 48.0905 31.8993H48.0923ZM47.589 31.8993C47.5895 28.1371 46.2066 24.5092 43.7092 21.721C41.2118 18.9328 37.7783 17.1836 34.0765 16.8135C30.3746 16.4435 26.669 17.479 23.6802 19.7187C20.6913 21.9585 18.6329 25.2424 17.9052 28.9318C17.1774 32.6213 17.8324 36.4526 19.7427 39.6808C21.653 42.909 24.6821 45.3033 28.241 46.3981C31.7999 47.4929 35.6342 47.21 38.9983 45.6044C42.3624 43.9988 45.0158 41.1853 46.4427 37.7109C47.1981 35.8685 47.5877 33.8938 47.589 31.8993Z" fill="#6100FF"/>
<path d="M49.5721 32.081C49.5756 36.0974 48.2049 39.9914 45.6927 43.102C43.1805 46.2125 39.6816 48.3481 35.7897 49.1461C31.8979 49.9442 27.8529 49.3555 24.3413 47.4801C20.8297 45.6047 18.0679 42.5581 16.5246 38.8574C15.1768 35.6312 14.8226 32.0688 15.5081 28.6357C16.1937 25.2026 17.8872 22.0586 20.3672 19.6143C22.7917 17.2291 25.8574 15.6194 29.1812 14.9865C32.505 14.3535 35.9395 14.7254 39.0555 16.0555C42.1716 17.3856 44.831 19.6151 46.7014 22.4653C48.5718 25.3155 49.5703 28.6601 49.5721 32.081ZM49.0379 32.081C49.0386 27.9838 47.5327 24.0328 44.8132 20.9963C42.0936 17.9598 38.3547 16.0549 34.3235 15.652C30.2924 15.249 26.2571 16.3769 23.0025 18.8162C19.7479 21.2556 17.5066 24.832 16.7144 28.8501C15.9223 32.8681 16.6358 37.0405 18.7164 40.556C20.797 44.0714 24.0959 46.6785 27.9715 47.8703C31.8472 49.0621 36.0225 48.7534 39.6856 47.0043C43.3487 45.2551 46.2377 42.1906 47.7908 38.4065C48.6118 36.4009 49.0355 34.2517 49.0379 32.081Z" fill="#6100FF"/>
<path d="M51.046 31.8945C51.0597 34.3217 50.5997 36.7278 49.6922 38.975C48.7848 41.2221 47.4478 43.2663 45.7578 44.9902C44.0684 46.734 42.0604 48.1297 39.8451 49.1001C36.4727 50.5625 32.7466 50.9788 29.1397 50.2963C25.5328 49.6137 22.2079 47.8632 19.5867 45.2667C17.8354 43.5202 16.4448 41.4393 15.4956 39.1449C14.5464 36.8504 14.0576 34.3881 14.0576 31.901C14.0576 29.414 14.5464 26.9517 15.4956 24.6572C16.4448 22.3628 17.8354 20.2819 19.5867 18.5354C22.2094 15.9395 25.5355 14.1897 29.1432 13.5078C32.7509 12.826 36.4777 13.2429 39.8507 14.7057C42.0647 15.6742 44.0725 17.0666 45.7634 18.8063C47.4531 20.53 48.79 22.5738 49.6974 24.8206C50.6048 27.0675 51.065 29.4732 51.0515 31.9001L51.046 31.8945ZM50.4917 31.8945C50.49 27.4668 48.8598 23.1979 45.918 19.918C42.9762 16.638 38.9331 14.5814 34.5748 14.148C30.2165 13.7146 25.8546 14.9354 22.3371 17.5731C18.8197 20.2108 16.3981 24.0767 15.5433 28.4193C14.6885 32.7619 15.4616 37.2706 17.7122 41.0689C19.9628 44.8672 23.53 47.6836 27.7203 48.9703C31.9106 50.2571 36.4245 49.9222 40.3842 48.031C44.3439 46.1397 47.4664 42.8272 49.1447 38.7375C50.0331 36.5679 50.4908 34.2427 50.4917 31.8945Z" fill="#6100FF"/>
<path d="M52.1561 32.1083C52.1662 34.7103 51.6735 37.2888 50.7061 39.6964C49.7387 42.104 48.3157 44.2935 46.5183 46.1398C43.8029 48.9551 40.3311 50.8872 36.5408 51.6926C32.7504 52.498 28.8111 52.1406 25.2196 50.6654C22.8152 49.681 20.6269 48.2182 18.7822 46.3624C16.9338 44.4976 15.4664 42.2774 14.4649 39.8301C13.4634 37.3829 12.9478 34.7574 12.9478 32.1055C12.9478 29.4536 13.4634 26.828 14.4649 24.3808C15.4664 21.9336 16.9338 19.7133 18.7822 17.8485C21.5334 15.0705 25.0297 13.1861 28.8298 12.433C32.6299 11.6799 36.5635 12.0918 40.1343 13.6169C43.7051 15.142 46.7531 17.7118 48.8936 21.002C51.0341 24.2923 52.1713 28.1557 52.1616 32.1045L52.1561 32.1083ZM51.6059 32.1083C51.6035 27.3486 49.8659 22.7599 46.7311 19.2345C43.5963 15.709 39.2882 13.4988 34.6446 13.0335C30.0009 12.5683 25.3536 13.8812 21.6063 16.7172C17.859 19.5531 15.2794 23.7093 14.3693 28.3775C13.4591 33.0458 14.2834 37.8925 16.6818 41.9752C19.0803 46.058 22.8815 49.0849 27.3462 50.4676C31.811 51.8502 36.6203 51.4896 40.839 49.456C45.0576 47.4224 48.3841 43.8611 50.1716 39.4645C51.1158 37.1316 51.6013 34.6322 51.6004 32.1083H51.6059Z" fill="#6100FF"/>
<path d="M53.6416 32.1264C53.6499 34.8793 53.1172 37.6069 52.0739 40.1532C51.0306 42.6995 49.4972 45.0147 47.5612 46.9665C44.6388 49.9313 40.9063 51.962 36.8346 52.8023C32.7629 53.6427 28.5341 53.2552 24.6817 51.6886C22.1082 50.6436 19.7671 49.0966 17.7944 47.1373C15.8052 45.185 14.2219 42.8564 13.1361 40.2864C12.0503 37.7164 11.4835 34.956 11.4686 32.1649C11.4536 29.3738 11.9908 26.6074 13.0491 24.0258C14.1074 21.4443 15.6657 19.0989 17.6338 17.1253C19.602 15.1517 21.9409 13.5892 24.5152 12.5281C27.0895 11.467 29.8482 10.9284 32.6314 10.9436C35.4147 10.9587 38.1673 11.5273 40.73 12.6163C43.2927 13.7054 45.6146 15.2933 47.5612 17.2882C49.4973 19.2395 51.0308 21.5543 52.0741 24.1004C53.1175 26.6464 53.6501 29.3738 53.6416 32.1264ZM53.0863 32.1264C53.0862 27.0732 51.2119 22.2007 47.828 18.4564C44.4441 14.7122 39.7925 12.3639 34.7778 11.8684C29.7631 11.3728 24.7439 12.7654 20.6963 15.7752C16.6486 18.785 13.862 23.1969 12.8783 28.1529C11.8946 33.1089 12.7842 38.2546 15.374 42.5893C17.9638 46.9241 22.0687 50.1379 26.8904 51.6057C31.7121 53.0736 36.9059 52.6906 41.4616 50.5312C46.0173 48.3718 49.6093 44.5903 51.5389 39.9223C52.5596 37.4506 53.0854 34.8017 53.0863 32.1264Z" fill="#6100FF"/>
<path d="M54.7513 31.9112C54.7555 36.3434 53.4606 40.6773 51.0299 44.3659C48.5992 48.0545 45.1419 50.9323 41.0945 52.6358C37.0471 54.3393 32.5911 54.7922 28.2892 53.9373C23.9874 53.0824 20.0325 50.958 16.9242 47.8324C14.589 45.49 12.7977 42.6525 11.6798 39.5247C10.562 36.397 10.1455 33.0573 10.4604 29.747C10.7753 26.4366 11.8138 23.2383 13.5008 20.3833C15.1878 17.5283 17.4811 15.0878 20.2151 13.2383C22.9491 11.3888 26.0554 10.1764 29.3095 9.68882C32.5636 9.20122 35.8842 9.45057 39.0314 10.4189C42.1785 11.3872 45.0735 13.0502 47.5072 15.2878C49.9409 17.5253 51.8524 20.2816 53.1036 23.3572C54.2019 26.0719 54.7618 28.9783 54.7513 31.9112ZM54.2168 31.9112C54.2138 26.5146 52.2255 21.3119 48.6386 17.315C45.0518 13.3181 40.1227 10.8126 34.8099 10.2857C29.4971 9.75878 24.1803 11.2482 19.8934 14.4642C15.6066 17.6803 12.6561 22.3931 11.6157 27.6863C10.5753 32.9795 11.5194 38.4746 14.2643 43.1032C17.0092 47.7318 21.3589 51.1629 26.4673 52.7294C31.5758 54.2959 37.078 53.8857 41.9039 51.5787C46.7299 49.2717 50.5346 45.2328 52.5784 40.2473C53.657 37.6035 54.2113 34.7711 54.2095 31.9112H54.2168Z" fill="#6100FF"/>
<path d="M55.8612 31.9712C55.8443 37.8243 53.6762 43.4617 49.7786 47.7872C45.8811 52.1127 40.5326 54.817 34.7735 55.3742C29.0143 55.9313 23.2562 54.3015 18.619 50.8017C13.9818 47.3019 10.797 42.1823 9.68396 36.4385C8.57094 30.6948 9.6093 24.7376 12.5971 19.7254C15.5848 14.7133 20.3084 11.0045 25.8492 9.32047C31.3899 7.63641 37.3518 8.09745 42.5752 10.6139C47.7986 13.1303 51.9102 17.5223 54.1103 22.9356C55.2735 25.8023 55.8684 28.8724 55.8612 31.9712ZM55.3572 31.9712C55.3563 26.2475 53.2511 20.7287 49.4512 16.4882C45.6513 12.2476 40.4282 9.58851 34.7978 9.02798C29.1675 8.46745 23.5323 10.0456 18.9882 13.4554C14.4442 16.8653 11.3161 21.8631 10.2124 27.4769C9.10872 33.0907 10.1083 38.9191 13.0167 43.8286C15.9251 48.7381 20.5345 52.3777 25.9483 54.0396C31.3622 55.7016 37.1935 55.2669 42.3082 52.8203C47.4228 50.3736 51.4552 46.0899 53.621 40.8022C54.7674 38.0024 55.3574 35.0017 55.3572 31.9712Z" fill="#6100FF"/>
<path d="M54.5478 43.4559C51.7313 48.9366 47.0007 53.1616 41.2758 55.3093C35.551 57.4571 29.2413 57.374 23.5736 55.0762C17.906 52.7784 13.2857 48.4302 10.6111 42.8772C7.93657 37.3242 7.39902 30.9633 9.10299 25.0315C10.807 19.0998 14.6306 14.0212 19.8304 10.7834C25.0303 7.5456 31.2345 6.38007 37.2366 7.51343C43.2387 8.6468 48.6097 11.9981 52.3049 16.9155C56.0002 21.8329 57.7557 27.965 57.2299 34.1192C56.9493 37.3792 56.038 40.5516 54.5478 43.4559ZM54.1356 43.2402C56.8862 37.8584 57.5601 31.6339 56.0262 25.7773C54.4923 19.9206 50.8602 14.8505 45.8363 11.5528C40.8123 8.25517 34.7557 6.96573 28.8442 7.93522C22.9326 8.90472 17.5888 12.0639 13.8518 16.7983C10.1149 21.5328 8.25199 27.5041 8.62539 33.5511C8.99879 39.598 11.5818 45.2883 15.8721 49.5155C20.1624 53.7426 25.8534 56.2043 31.8382 56.4219C37.823 56.6395 43.674 54.5975 48.2532 50.6929C50.6779 48.6228 52.6766 46.0905 54.1356 43.2402Z" fill="#6100FF"/>
<path d="M51.3468 50.1615C46.8895 54.8399 40.8717 57.6739 34.4636 58.1123C28.0555 58.5507 21.7153 56.5622 16.676 52.5336C11.6367 48.5049 8.25853 42.7241 7.19854 36.3154C6.13854 29.9066 7.47245 23.3281 10.9409 17.8592C14.4093 12.3903 19.7643 8.42194 25.9643 6.72591C32.1644 5.02989 38.7664 5.72743 44.4863 8.68289C50.2062 11.6384 54.6352 16.6404 56.9118 22.7164C59.1885 28.7923 59.1501 35.5077 56.8041 41.5566C55.5605 44.7592 53.7062 47.6831 51.3468 50.1615ZM51.0507 49.8736C55.4256 45.2642 57.9497 39.1734 58.132 32.7856C58.3143 26.3979 56.1419 20.1699 52.0372 15.3128C47.9324 10.4556 42.1888 7.31657 35.9233 6.50604C29.6579 5.69551 23.3183 7.27146 18.1377 10.9274C12.957 14.5833 9.30544 20.0579 7.89318 26.2865C6.48092 32.5152 7.40886 39.0525 10.4966 44.6273C13.5843 50.2022 18.6111 54.4159 24.5994 56.4491C30.5876 58.4824 37.1093 58.1898 42.8961 55.6282C45.9608 54.2692 48.7316 52.3139 51.0507 49.8736Z" fill="#6100FF"/>
<path d="M56.0141 46.0784C52.56 51.9231 47.0808 56.2593 40.6419 58.2437C34.203 60.2282 27.2648 59.719 21.1764 56.8152C15.0881 53.9115 10.2847 48.8207 7.7005 42.5328C5.11629 36.245 4.93594 29.2095 7.19448 22.7946C9.45303 16.3797 13.989 11.0438 19.9204 7.82463C25.8519 4.60547 32.7547 3.73312 39.2866 5.37721C45.8184 7.0213 51.5125 11.0643 55.2614 16.72C59.0104 22.3758 60.5462 29.2399 59.5703 35.9777C59.0517 39.5481 57.8433 42.9803 56.0141 46.0784ZM55.7167 45.899C59.1182 40.1214 60.2742 33.2705 58.9599 26.6785C57.6456 20.0864 53.955 14.2246 48.6056 10.2328C43.2563 6.24107 36.6307 4.40475 30.0174 5.081C23.4041 5.75724 17.2757 8.89769 12.8241 13.8916C8.37249 18.8856 5.91586 25.3761 5.93195 32.1008C5.94805 38.8256 8.43571 45.3039 12.9112 50.276C17.3866 55.2481 23.53 58.3585 30.1465 59.0023C36.763 59.6462 43.3797 57.7774 48.7098 53.7595C51.5321 51.6293 53.9129 48.9585 55.7167 45.899Z" fill="#6100FF"/>
<path d="M58.9083 43.1138C56.1841 49.6853 51.1414 54.997 44.7609 58.0158C38.3804 61.0346 31.1182 61.5447 24.3865 59.447C17.6548 57.3493 11.9349 52.7937 8.33906 46.6661C4.7432 40.5386 3.52844 33.277 4.93103 26.2935C6.33361 19.3101 10.2533 13.104 15.9278 8.88213C21.6023 4.66025 28.626 2.72436 35.633 3.45094C42.6401 4.17751 49.1296 7.51462 53.8395 12.8133C58.5495 18.112 61.1433 24.9934 61.1165 32.1195C61.1006 35.8953 60.3503 39.6311 58.9083 43.1138ZM58.6586 43.008C61.3494 36.4943 61.5495 29.201 59.22 22.5463C56.8904 15.8917 52.1977 10.3514 46.0545 7.00302C39.9113 3.65459 32.7567 2.73735 25.9821 4.42967C19.2075 6.12199 13.2972 10.3029 9.40056 16.1593C5.50391 22.0157 3.89948 29.129 4.89928 36.1159C5.89908 43.1027 9.43164 49.4636 14.81 53.9616C20.1883 58.4595 27.028 60.773 33.9988 60.4521C40.9697 60.1312 47.5734 57.1989 52.5257 52.2254C55.1489 49.5903 57.2339 46.4589 58.662 43.0095L58.6586 43.008Z" fill="#6100FF"/>
<path d="M32.5548 61.8439C48.8999 61.8439 62.1502 48.4386 62.1502 31.9023C62.1502 15.3661 48.8999 1.96082 32.5548 1.96082C16.2098 1.96082 2.95947 15.3661 2.95947 31.9023C2.95947 48.4386 16.2098 61.8439 32.5548 61.8439Z" stroke="#6100FF" stroke-width="1.16959" stroke-miterlimit="10"/>
</g>
<defs>
<clipPath id="clip0_10_77">
<rect width="64" height="64" fill="white"/>
</clipPath>
</defs>
</svg>
