<?xml version="1.0" encoding="UTF-8"?>
<svg xmlns="http://www.w3.org/2000/svg" xmlns:xlink="http://www.w3.org/1999/xlink" viewBox="0 0 288 288">
  <defs>
    <style>
      .cls-1 {
        fill: url(#linear-gradient-38);
      }

      .cls-1, .cls-2, .cls-3, .cls-4, .cls-5, .cls-6, .cls-7, .cls-8, .cls-9, .cls-10, .cls-11, .cls-12, .cls-13, .cls-14, .cls-15, .cls-16, .cls-17, .cls-18, .cls-19, .cls-20, .cls-21, .cls-22, .cls-23, .cls-24, .cls-25, .cls-26, .cls-27, .cls-28, .cls-29, .cls-30, .cls-31, .cls-32, .cls-33, .cls-34, .cls-35, .cls-36, .cls-37, .cls-38, .cls-39, .cls-40, .cls-41, .cls-42, .cls-43, .cls-44, .cls-45, .cls-46, .cls-47, .cls-48, .cls-49, .cls-50, .cls-51, .cls-52, .cls-53, .cls-54, .cls-55, .cls-56, .cls-57, .cls-58, .cls-59, .cls-60, .cls-61, .cls-62, .cls-63, .cls-64, .cls-65, .cls-66, .cls-67, .cls-68, .cls-69 {
        stroke-width: 0px;
      }

      .cls-2 {
        fill: url(#linear-gradient-12);
      }

      .cls-3 {
        fill: url(#linear-gradient-17);
      }

      .cls-4 {
        fill: url(#linear-gradient-19);
      }

      .cls-5 {
        fill: url(#linear-gradient-33);
      }

      .cls-6 {
        fill: url(#linear-gradient);
      }

      .cls-7 {
        fill: url(#linear-gradient-62);
      }

      .cls-8 {
        fill: url(#linear-gradient-57);
      }

      .cls-9 {
        fill: url(#linear-gradient-21);
      }

      .cls-10 {
        fill: url(#linear-gradient-6);
      }

      .cls-70 {
        isolation: isolate;
      }

      .cls-11 {
        fill: url(#linear-gradient-42);
      }

      .cls-12 {
        fill: url(#linear-gradient-15);
      }

      .cls-13 {
        fill: url(#radial-gradient-3);
      }

      .cls-13, .cls-15, .cls-71, .cls-46, .cls-66 {
        mix-blend-mode: screen;
      }

      .cls-14 {
        fill: url(#linear-gradient-11);
      }

      .cls-15 {
        fill: url(#radial-gradient);
        opacity: .6;
      }

      .cls-16 {
        fill: url(#linear-gradient-5);
      }

      .cls-17 {
        fill: url(#linear-gradient-31);
      }

      .cls-18 {
        fill: url(#linear-gradient-58);
      }

      .cls-19 {
        fill: url(#linear-gradient-63);
      }

      .cls-20 {
        fill: url(#linear-gradient-34);
      }

      .cls-21 {
        fill: url(#linear-gradient-41);
      }

      .cls-22 {
        fill: url(#linear-gradient-40);
      }

      .cls-23 {
        fill: url(#linear-gradient-13);
      }

      .cls-24 {
        fill: url(#linear-gradient-23);
      }

      .cls-25 {
        fill: url(#linear-gradient-25);
      }

      .cls-26 {
        fill: url(#linear-gradient-43);
      }

      .cls-27 {
        fill: url(#linear-gradient-16);
      }

      .cls-28 {
        fill: url(#linear-gradient-22);
      }

      .cls-29 {
        fill: url(#linear-gradient-54);
      }

      .cls-30 {
        fill: url(#linear-gradient-55);
      }

      .cls-31 {
        fill: url(#linear-gradient-35);
      }

      .cls-32 {
        fill: url(#linear-gradient-50);
      }

      .cls-33 {
        fill: url(#linear-gradient-32);
      }

      .cls-34 {
        fill: url(#linear-gradient-60);
      }

      .cls-35 {
        fill: url(#linear-gradient-59);
      }

      .cls-36 {
        fill: url(#linear-gradient-20);
      }

      .cls-37 {
        fill: url(#linear-gradient-14);
      }

      .cls-38 {
        fill: url(#linear-gradient-2);
      }

      .cls-39 {
        fill: url(#linear-gradient-52);
      }

      .cls-40 {
        fill: url(#linear-gradient-45);
      }

      .cls-41 {
        fill: url(#linear-gradient-7);
      }

      .cls-42 {
        fill: url(#linear-gradient-39);
      }

      .cls-43 {
        fill: url(#linear-gradient-3);
      }

      .cls-44 {
        fill: url(#linear-gradient-9);
      }

      .cls-45 {
        fill: url(#linear-gradient-27);
      }

      .cls-46 {
        fill: url(#radial-gradient-2);
      }

      .cls-47 {
        fill: url(#linear-gradient-53);
      }

      .cls-48 {
        fill: url(#linear-gradient-65);
      }

      .cls-49 {
        fill: url(#linear-gradient-36);
      }

      .cls-50 {
        fill: url(#linear-gradient-48);
      }

      .cls-51 {
        fill: url(#linear-gradient-49);
      }

      .cls-52 {
        fill: url(#linear-gradient-8);
      }

      .cls-53 {
        fill: url(#linear-gradient-47);
      }

      .cls-54 {
        fill: url(#linear-gradient-24);
      }

      .cls-55 {
        fill: url(#linear-gradient-26);
      }

      .cls-56 {
        fill: url(#linear-gradient-61);
      }

      .cls-57 {
        fill: url(#linear-gradient-18);
      }

      .cls-58 {
        fill: url(#linear-gradient-51);
      }

      .cls-59 {
        fill: url(#linear-gradient-30);
      }

      .cls-60 {
        fill: url(#linear-gradient-44);
      }

      .cls-61 {
        fill: url(#linear-gradient-29);
      }

      .cls-62 {
        fill: url(#linear-gradient-46);
      }

      .cls-63 {
        fill: url(#linear-gradient-64);
      }

      .cls-64 {
        fill: url(#linear-gradient-28);
      }

      .cls-65 {
        fill: url(#linear-gradient-56);
      }

      .cls-66 {
        fill: url(#linear-gradient-66);
      }

      .cls-67 {
        fill: url(#linear-gradient-10);
      }

      .cls-68 {
        fill: url(#linear-gradient-4);
      }

      .cls-69 {
        fill: url(#linear-gradient-37);
      }
    </style>
    <linearGradient id="linear-gradient" x1="14.55" y1="144" x2="276.82" y2="144" gradientUnits="userSpaceOnUse">
      <stop offset="0" stop-color="#b07515"/>
      <stop offset=".09" stop-color="#e0ba5f"/>
      <stop offset=".14" stop-color="#f5d77f"/>
      <stop offset=".26" stop-color="#ffffd7"/>
      <stop offset=".36" stop-color="#f5d77f"/>
      <stop offset=".49" stop-color="#b07515"/>
      <stop offset=".57" stop-color="#e0ba5f"/>
      <stop offset=".61" stop-color="#f5d77f"/>
      <stop offset=".74" stop-color="#ffffd7"/>
      <stop offset=".84" stop-color="#f5d77f"/>
      <stop offset="1" stop-color="#b07515"/>
    </linearGradient>
    <linearGradient id="linear-gradient-2" x1="52.66" y1="52.66" x2="235.85" y2="235.85" xlink:href="#linear-gradient"/>
    <linearGradient id="linear-gradient-3" x1="58.88" y1="144" x2="223.72" y2="144" xlink:href="#linear-gradient"/>
    <linearGradient id="linear-gradient-4" x1="88.33" y1="88.32" x2="202.09" y2="202.09" gradientUnits="userSpaceOnUse">
      <stop offset="0" stop-color="#0f1115"/>
      <stop offset=".14" stop-color="#1c2228"/>
      <stop offset=".26" stop-color="#232a32"/>
      <stop offset=".36" stop-color="#1c2228"/>
      <stop offset=".49" stop-color="#0f1115"/>
      <stop offset=".61" stop-color="#1c2228"/>
      <stop offset=".74" stop-color="#232a32"/>
      <stop offset=".84" stop-color="#1c2228"/>
      <stop offset="1" stop-color="#0f1115"/>
    </linearGradient>
    <linearGradient id="linear-gradient-5" x1="93.87" y1="93.87" x2="189.6" y2="189.6" gradientUnits="userSpaceOnUse">
      <stop offset="0" stop-color="#161a1f"/>
      <stop offset=".14" stop-color="#2a323b"/>
      <stop offset=".26" stop-color="#343f4a"/>
      <stop offset=".36" stop-color="#2a323b"/>
      <stop offset=".49" stop-color="#161a1f"/>
      <stop offset=".61" stop-color="#2a323b"/>
      <stop offset=".74" stop-color="#343f4a"/>
      <stop offset=".84" stop-color="#2a323b"/>
      <stop offset="1" stop-color="#161a1f"/>
    </linearGradient>
    <linearGradient id="linear-gradient-6" x1="53.32" y1="53.31" x2="226.6" y2="226.6" xlink:href="#linear-gradient-4"/>
    <linearGradient id="linear-gradient-7" x1="63.34" y1="63.34" x2="217.47" y2="217.47" xlink:href="#linear-gradient-5"/>
    <radialGradient id="radial-gradient" cx="196.24" cy="143.79" fx="196.24" fy="143.79" r="168.42" gradientUnits="userSpaceOnUse">
      <stop offset="0" stop-color="#e8e8e8"/>
      <stop offset=".05" stop-color="#a6a6a6"/>
      <stop offset=".14" stop-color="#606060"/>
      <stop offset=".21" stop-color="#4b4b4b"/>
      <stop offset=".33" stop-color="#303030"/>
      <stop offset=".45" stop-color="#1a1a1a"/>
      <stop offset=".59" stop-color="#0b0b0b"/>
      <stop offset=".76" stop-color="#020202"/>
      <stop offset="1" stop-color="#000"/>
    </radialGradient>
    <linearGradient id="linear-gradient-8" x1="50.55" y1="50.55" x2="247.28" y2="247.28" xlink:href="#linear-gradient"/>
    <linearGradient id="linear-gradient-9" x1="48.87" y1="54.15" x2="252.48" y2="257.76" xlink:href="#linear-gradient"/>
    <linearGradient id="linear-gradient-10" x1="60.09" y1="42.93" x2="263.71" y2="246.55" xlink:href="#linear-gradient"/>
    <linearGradient id="linear-gradient-11" x1="70.36" y1="32.66" x2="273.95" y2="236.25" xlink:href="#linear-gradient"/>
    <linearGradient id="linear-gradient-12" x1="82.4" y1="20.62" x2="286" y2="224.23" xlink:href="#linear-gradient"/>
    <linearGradient id="linear-gradient-13" x1="98.76" y1="4.27" x2="302.35" y2="207.86" xlink:href="#linear-gradient"/>
    <linearGradient id="linear-gradient-14" x1="109.83" y1="-6.81" x2="313.43" y2="196.79" xlink:href="#linear-gradient"/>
    <linearGradient id="linear-gradient-15" x1="114.55" y1="-11.52" x2="318.14" y2="192.07" xlink:href="#linear-gradient"/>
    <linearGradient id="linear-gradient-16" x1="120" y1="-16.99" x2="323.62" y2="186.62" xlink:href="#linear-gradient"/>
    <linearGradient id="linear-gradient-17" x1="122.79" y1="-19.76" x2="326.38" y2="183.84" xlink:href="#linear-gradient"/>
    <linearGradient id="linear-gradient-18" x1="124.28" y1="-21.23" x2="327.85" y2="182.35" xlink:href="#linear-gradient"/>
    <linearGradient id="linear-gradient-19" x1="124.01" y1="-20.98" x2="327.61" y2="182.61" xlink:href="#linear-gradient"/>
    <linearGradient id="linear-gradient-20" x1="-22.18" y1="125.16" x2="181.47" y2="328.81" xlink:href="#linear-gradient"/>
    <linearGradient id="linear-gradient-21" x1="-21.24" y1="124.26" x2="182.37" y2="327.87" xlink:href="#linear-gradient"/>
    <linearGradient id="linear-gradient-22" x1="-19.07" y1="122.1" x2="184.53" y2="325.69" xlink:href="#linear-gradient"/>
    <linearGradient id="linear-gradient-23" x1="-14.68" y1="117.7" x2="188.93" y2="321.31" xlink:href="#linear-gradient"/>
    <linearGradient id="linear-gradient-24" x1="-5.26" y1="108.28" x2="198.34" y2="311.88" xlink:href="#linear-gradient"/>
    <linearGradient id="linear-gradient-25" x1="6.36" y1="96.65" x2="209.97" y2="300.26" xlink:href="#linear-gradient"/>
    <linearGradient id="linear-gradient-26" x1="12.94" y1="90.09" x2="216.53" y2="293.69" xlink:href="#linear-gradient"/>
    <linearGradient id="linear-gradient-27" x1="24.34" y1="78.66" x2="227.96" y2="282.28" xlink:href="#linear-gradient"/>
    <linearGradient id="linear-gradient-28" x1="33.78" y1="69.21" x2="237.4" y2="272.83" xlink:href="#linear-gradient"/>
    <linearGradient id="linear-gradient-29" x1="43.89" y1="59.14" x2="247.49" y2="262.74" xlink:href="#linear-gradient"/>
    <linearGradient id="linear-gradient-30" x1="54.89" y1="48.13" x2="258.49" y2="251.74" xlink:href="#linear-gradient"/>
    <linearGradient id="linear-gradient-31" x1="47.99" y1="53.27" x2="251.58" y2="256.86" xlink:href="#linear-gradient-5"/>
    <linearGradient id="linear-gradient-32" x1="59.2" y1="42.05" x2="262.82" y2="245.67" xlink:href="#linear-gradient-5"/>
    <linearGradient id="linear-gradient-33" x1="69.48" y1="31.78" x2="273.07" y2="235.37" xlink:href="#linear-gradient-5"/>
    <linearGradient id="linear-gradient-34" x1="81.52" y1="19.74" x2="285.13" y2="223.36" xlink:href="#linear-gradient-5"/>
    <linearGradient id="linear-gradient-35" x1="97.88" y1="3.39" x2="301.47" y2="206.97" xlink:href="#linear-gradient-5"/>
    <linearGradient id="linear-gradient-36" x1="108.96" y1="-7.68" x2="312.53" y2="195.9" xlink:href="#linear-gradient-5"/>
    <linearGradient id="linear-gradient-37" x1="113.66" y1="-12.4" x2="317.26" y2="191.2" xlink:href="#linear-gradient-5"/>
    <linearGradient id="linear-gradient-38" x1="119.12" y1="-17.88" x2="322.74" y2="185.75" xlink:href="#linear-gradient-5"/>
    <linearGradient id="linear-gradient-39" x1="121.9" y1="-20.65" x2="325.51" y2="182.97" xlink:href="#linear-gradient-5"/>
    <linearGradient id="linear-gradient-40" x1="123.39" y1="-22.11" x2="326.97" y2="181.46" xlink:href="#linear-gradient-5"/>
    <linearGradient id="linear-gradient-41" x1="123.13" y1="-21.87" x2="326.73" y2="181.73" xlink:href="#linear-gradient-5"/>
    <linearGradient id="linear-gradient-42" x1="-23.06" y1="124.29" x2="180.57" y2="327.92" xlink:href="#linear-gradient-5"/>
    <linearGradient id="linear-gradient-43" x1="-22.12" y1="123.38" x2="181.48" y2="326.98" xlink:href="#linear-gradient-5"/>
    <linearGradient id="linear-gradient-44" x1="-19.94" y1="121.23" x2="183.64" y2="324.8" xlink:href="#linear-gradient-5"/>
    <linearGradient id="linear-gradient-45" x1="-15.57" y1="116.81" x2="188.05" y2="320.43" xlink:href="#linear-gradient-5"/>
    <linearGradient id="linear-gradient-46" x1="-6.14" y1="107.4" x2="197.46" y2="311" xlink:href="#linear-gradient-5"/>
    <linearGradient id="linear-gradient-47" x1="5.48" y1="95.77" x2="209.09" y2="299.38" xlink:href="#linear-gradient-5"/>
    <linearGradient id="linear-gradient-48" x1="12.06" y1="89.22" x2="215.65" y2="292.81" xlink:href="#linear-gradient-5"/>
    <linearGradient id="linear-gradient-49" x1="23.45" y1="77.77" x2="227.08" y2="281.4" xlink:href="#linear-gradient-5"/>
    <linearGradient id="linear-gradient-50" x1="32.89" y1="68.32" x2="236.52" y2="271.95" xlink:href="#linear-gradient-5"/>
    <linearGradient id="linear-gradient-51" x1="43.01" y1="58.26" x2="246.61" y2="261.85" xlink:href="#linear-gradient-5"/>
    <linearGradient id="linear-gradient-52" x1="54" y1="47.24" x2="257.61" y2="250.85" xlink:href="#linear-gradient-5"/>
    <linearGradient id="linear-gradient-53" x1="26.23" y1="116.33" x2="174.05" y2="264.15" xlink:href="#linear-gradient"/>
    <linearGradient id="linear-gradient-54" x1="38.99" y1="103.58" x2="186.8" y2="251.38" xlink:href="#linear-gradient"/>
    <linearGradient id="linear-gradient-55" x1="53.19" y1="89.38" x2="201" y2="237.19" xlink:href="#linear-gradient"/>
    <linearGradient id="linear-gradient-56" x1="66.97" y1="75.59" x2="214.79" y2="223.41" xlink:href="#linear-gradient"/>
    <linearGradient id="linear-gradient-57" x1="81.97" y1="60.59" x2="229.79" y2="208.41" xlink:href="#linear-gradient"/>
    <linearGradient id="linear-gradient-58" x1="96.05" y1="46.51" x2="243.87" y2="194.33" xlink:href="#linear-gradient"/>
    <linearGradient id="linear-gradient-59" x1="109.6" y1="32.97" x2="257.42" y2="180.78" xlink:href="#linear-gradient"/>
    <linearGradient id="linear-gradient-60" x1="83.64" y1="58.92" x2="231.46" y2="206.74" xlink:href="#linear-gradient"/>
    <linearGradient id="linear-gradient-61" x1="94.82" y1="47.74" x2="242.65" y2="195.57" xlink:href="#linear-gradient"/>
    <linearGradient id="linear-gradient-62" x1="106.33" y1="36.25" x2="254.13" y2="184.05" xlink:href="#linear-gradient"/>
    <linearGradient id="linear-gradient-63" x1="34.78" y1="107.79" x2="182.6" y2="255.6" xlink:href="#linear-gradient"/>
    <linearGradient id="linear-gradient-64" x1="45.96" y1="96.61" x2="193.77" y2="244.41" xlink:href="#linear-gradient"/>
    <linearGradient id="linear-gradient-65" x1="57.47" y1="85.11" x2="205.28" y2="232.92" xlink:href="#linear-gradient"/>
    <linearGradient id="linear-gradient-66" x1="-139.28" y1="-134.9" x2="275.34" y2="279.71" xlink:href="#linear-gradient"/>
    <radialGradient id="radial-gradient-2" cx="-423.63" cy="-2271.77" fx="-423.63" fy="-2271.77" r="36.99" gradientTransform="translate(806.69 1241.87) rotate(.35) scale(1.69 .49)" gradientUnits="userSpaceOnUse">
      <stop offset="0" stop-color="#ffc94c"/>
      <stop offset=".14" stop-color="#a2621e"/>
      <stop offset=".16" stop-color="#955a1b"/>
      <stop offset=".25" stop-color="#6e4214"/>
      <stop offset=".34" stop-color="#4c2e0e"/>
      <stop offset=".44" stop-color="#301d08"/>
      <stop offset=".55" stop-color="#1a1004"/>
      <stop offset=".66" stop-color="#0b0702"/>
      <stop offset=".8" stop-color="#020100"/>
      <stop offset="1" stop-color="#000"/>
    </radialGradient>
    <radialGradient id="radial-gradient-3" cx="-359.84" cy="-2151.19" fx="-359.84" fy="-2151.19" r="36.99" xlink:href="#radial-gradient-2"/>
  </defs>
  <g class="cls-70">
    <g id="Layer_1" data-name="Layer 1">
      <g>
        <g>
          <g>
            <path class="cls-6" d="m144,272.03c-70.71,0-128.03-57.32-128.03-128.04S73.29,15.97,144,15.97s128.03,57.32,128.03,128.03-57.32,128.04-128.03,128.04Z"/>
            <path class="cls-38" d="m144,270.16c-69.68,0-126.16-56.48-126.16-126.16S74.32,17.84,144,17.84s126.16,56.48,126.16,126.16-56.48,126.16-126.16,126.16Z"/>
            <path class="cls-43" d="m144,227.3c-46.01,0-83.3-37.29-83.3-83.3s37.29-83.3,83.3-83.3,83.3,37.29,83.3,83.3-37.29,83.3-83.3,83.3Z"/>
            <path class="cls-68" d="m144,225.14c-44.81,0-81.14-36.32-81.14-81.14s36.33-81.14,81.14-81.14,81.14,36.32,81.14,81.14-36.33,81.14-81.14,81.14Z"/>
            <path class="cls-16" d="m144,212.04c-37.58,0-68.04-30.46-68.04-68.04s30.46-68.04,68.04-68.04,68.04,30.46,68.04,68.04-30.46,68.04-68.04,68.04Z"/>
            <path class="cls-16" d="m144,212.04c-37.58,0-68.04-30.46-68.04-68.04s30.46-68.04,68.04-68.04,68.04,30.46,68.04,68.04-30.46,68.04-68.04,68.04Z"/>
            <rect class="cls-10" x="3.78" y="113.9" width="280.44" height="60.19"/>
            <rect class="cls-41" x="15.37" y="121.15" width="257.27" height="45.7"/>
            <path class="cls-15" d="m180.38,113.9H3.78v60.19h115.08c16.57-23.66,37.49-44.14,61.52-60.19Z"/>
            <path class="cls-52" d="m285.23,175.1H2.77v-62.2h282.46v62.2Zm-280.44-2.02h278.43v-58.17H4.79v58.17Z"/>
          </g>
          <g class="cls-71">
            <g>
              <path class="cls-44" d="m65.91,76.73c-2.66-2.4-3.14-2.83-3.72-3.29-.61-.49-1-.6-1.63-.15-.16.11-.44.38-.58.53-.06.07-.16.11-.22.05-.1-.09-.06-.21.11-.39.7-.77,1.72-1.79,1.79-1.88.37-.41.92-1.12,1.63-1.92,2.52-2.8,4.79-1.87,5.64-1.1,1.4,1.26,1.51,2.82,1.62,4.38,1.53-.91,4.27-1.5,6.26.3,1.83,1.65,2.43,4.79-.21,7.71-.17.19-.69.7-1.16,1.18-.48.46-.93.93-.99,1-.03.03-.29.33-.6.7-.31.34-.63.76-.86,1.02-.17.19-.28.24-.38.15-.05-.04-.07-.13.02-.23.14-.15.29-.39.39-.57.24-.4-.06-.83-.49-1.34-.64-.73-1.98-1.95-3.62-3.43l-3-2.71Zm1.61-1.02c.12.11.18.11.3.05.11-.09.44-.35,1.01-.98.86-.95,1.04-1.22.96-1.95-.09-.73-.47-1.54-1.17-2.17-1.41-1.28-3.5-2.02-5.01-.35-.17.19-.47.56-.65.9-.1.19-.1.28,0,.37l4.57,4.13Zm1.81,1.64c1.31,1.19,3.43,3.09,3.7,3.31.88.7,1.12.92,1.86.62.64-.26,1.33-.96,1.61-1.27.83-.92,1.68-2.85-.25-4.59-1.02-.93-2.82-1.92-4.91-1.43-.91.23-1.35.6-1.77.97-.23.19-1,1.04-1.23,1.3-.06.07-.06.13.03.21l.97.88Z"/>
              <path class="cls-67" d="m77.89,64.65c-2.26-2.78-2.66-3.28-3.16-3.82-.53-.58-.9-.75-1.59-.39-.17.08-.49.31-.65.44-.07.06-.17.08-.23.01-.09-.11-.02-.22.17-.37.41-.33.89-.72,1.3-1.02l.76-.56c.12-.1,3.67-2.98,4.07-3.33.33-.29.58-.56.69-.71.07-.09.09-.22.18-.3.05-.04.13.01.2.11.1.12.19.41.54.95.13.19.73,1.01.87,1.25.05.11.11.24.03.3-.11.09-.22.02-.33-.12-.1-.13-.36-.41-.63-.56-.35-.18-.71-.26-1.76.42-.33.21-2.29,1.77-2.49,1.93-.07.06-.06.14.04.27l3.99,4.92c.1.13.16.17.25.09.23-.19,2.42-1.97,2.81-2.34.4-.38.62-.62.64-.93,0-.25,0-.39.08-.45.06-.04.12-.03.21.07.09.11.24.48.67,1.11.25.38.75,1.07.85,1.2.11.15.28.34.15.44-.09.07-.18.03-.26-.06-.15-.18-.29-.35-.55-.53-.28-.19-.68-.36-1.43.13-.52.34-2.32,1.73-2.62,1.98-.09.07-.08.16-.02.23l1.27,1.57c.49.6,2.15,2.69,2.47,3.05,1.05,1.19,1.51,1.2,3.26-.22.46-.37,1.25-1.01,1.55-1.58.31-.57.23-1.1-.24-1.93-.12-.23-.15-.33-.06-.4.11-.09.22.06.33.18.12.14.96,1.47,1.17,1.92.25.57.11.68-.59,1.25-1.34,1.08-2.35,1.84-3.06,2.39-.73.53-1.17.86-1.44,1.07-.03.03-.34.28-.7.6-.36.29-.74.66-1.01.88-.2.16-.31.19-.4.09-.04-.05-.05-.14.05-.22.16-.13.34-.34.48-.5.3-.36.07-.83-.28-1.4-.52-.82-1.66-2.23-3.05-3.94l-2.55-3.14Z"/>
              <path class="cls-14" d="m94.47,65.16c-.36.03-.43-.04-.74-.57-.58-.99-.97-1.82-1.14-2.15-.11-.23-.13-.35-.03-.41.12-.07.18-.02.27.14.1.18.27.45.49.7,1.16,1.29,2.79,1.07,4.12.29,1.9-1.12,2.02-3.04,1.27-4.3-.81-1.36-1.85-1.82-4.38-2.22l-1.32-.21c-3.11-.48-4.31-1.42-5.11-2.77-1.25-2.11-.52-4.49,1.99-5.98.77-.46,1.39-.72,1.96-.89.42-.14.59-.22.75-.31.16-.09.22-.08.28.02.06.1.37.8,1.16,2.14.19.32.23.48.13.54-.12.07-.2-.02-.31-.17-.16-.23-.6-.69-.84-.84-.25-.15-1.27-.66-3.09.41-1.37.81-1.93,2.29-1.08,3.73.67,1.13,1.6,1.53,4.38,1.89l.81.11c3.42.46,4.7,1.36,5.64,2.94.48.81,1.05,2.5.26,4.28-.5,1.1-1.43,1.97-2.5,2.6-.93.55-1.92.95-2.97,1.03Z"/>
              <path class="cls-2" d="m109.44,50.51c.81,2.05,1.48,3.73,1.95,4.59.31.59.62,1.01,1.3.84.32-.08.8-.22.99-.3.13-.05.2,0,.22.06.04.11-.04.21-.27.31-1.17.47-2.54.94-2.65.98-.1.04-1.42.64-2.06.9-.23.09-.36.09-.41-.03-.03-.07,0-.15.12-.2.19-.08.43-.22.61-.34.39-.26.31-.77.15-1.42-.25-.94-.92-2.62-1.73-4.67l-3.58-9.02-3.14,1.3c-1.32.54-1.77.9-1.91,1.55-.09.45-.1.63-.1.8,0,.2-.04.27-.13.3-.06.02-.13-.02-.18-.15-.09-.22-.39-2.22-.41-2.4-.01-.15-.03-.46.05-.49.15-.06.45.07,1.04-.12.65-.18,1.47-.46,1.73-.56l8-3.18c.68-.27,1.16-.51,1.47-.71.3-.17.47-.31.55-.34.11-.04.16.09.21.22.25.64.78,2.14.87,2.37.08.19.05.3-.04.34-.1.04-.18,0-.31-.3l-.12-.23c-.32-.62-1.02-.91-3.09-.13l-2.71,1.02,3.58,9.03Z"/>
              <path class="cls-23" d="m139.54,50.17c-.78.51-2.3,1.01-3.51,1.13-6.34.64-9.43-3.97-9.84-8.09-.37-3.71,1.8-9.21,8.11-9.84,5.15-.52,9.31,2.37,9.85,7.67.4,4.03-1.87,6.96-3.28,8.09l4.93,1.95c5.27,2.08,8.75,1.85,9.9,1.73,1.14-.11,2.9-.54,4.41-1.34.13-.06.24-.12.31-.12.09,0,.14.06.15.12,0,.09-.03.17-.16.25-1.24.73-3.71,1.96-7.09,2.3-2.77.28-5.82-.43-9.73-2.12l-4.05-1.74Zm-3.05.21c2.06-.21,6.19-1.82,5.53-8.48-.55-5.49-4.18-8.1-7.8-7.74-3.82.38-6.43,3.19-5.93,8.2.54,5.32,4.08,8.44,8.19,8.02Z"/>
              <path class="cls-37" d="m150.37,39.71c.41-3.56.48-4.2.52-4.93.05-.78-.1-1.16-.83-1.41-.18-.07-.56-.14-.77-.16-.09,0-.18-.07-.17-.16.01-.14.14-.17.38-.15,1.03.12,2.41.35,2.62.37.21.02,1.58.12,2.27.2.25.03.36.09.34.23-.01.09-.11.13-.2.12-.16-.02-.3-.01-.58,0-.63.02-.86.41-1,1.2-.13.72-.2,1.36-.61,4.92l-.37,3.19c-.37,3.29.19,4.78,1.06,5.83,1,1.18,2,1.5,3.3,1.65,1.39.16,2.83-.34,3.77-1.23,1.2-1.18,1.7-3.08,1.97-5.43l.33-2.85c.41-3.56.48-4.19.52-4.93.04-.78-.1-1.17-.83-1.41-.18-.07-.56-.13-.77-.16-.09-.01-.18-.07-.17-.16.01-.14.13-.17.38-.15,1.03.12,2.27.33,2.41.35.16.02,1.24.07,1.92.16.25.03.36.09.34.23-.01.09-.11.13-.2.12-.16-.02-.3-.01-.58,0-.63.07-.85.41-.99,1.2-.13.73-.2,1.36-.61,4.92l-.28,2.44c-.29,2.46-.87,5.17-2.88,6.58-1.81,1.27-3.55,1.3-4.89,1.15-.78-.09-3.07-.44-4.51-2.16-.99-1.2-1.68-2.9-1.3-6.23l.38-3.33Z"/>
              <path class="cls-12" d="m176.77,38.35c.48-.64.62-.75.75-.71.13.04.19.18.24.94.07.94.72,11.06,1.04,14.81.19,2.2.72,2.74,1.14,3.02.3.21.62.34.84.4.13.04.21.09.18.2-.04.13-.25.12-.5.04-.33-.1-1.93-.59-3.43-1.1-.41-.15-.66-.23-.61-.36.03-.09.11-.11.2-.11.15,0,.34-.16.32-.55l-.38-6.03c-.01-.1-.05-.16-.16-.19l-4.72-1.46c-.11-.03-.2.02-.27.11l-2.51,3.48c-.36.49-.64.98-.76,1.38-.13.44.27.78.64.89l.22.07c.15.05.21.11.18.2-.04.13-.18.13-.38.08-.53-.17-1.45-.52-1.69-.6-.24-.07-1.47-.38-2.5-.7-.28-.09-.4-.17-.36-.3.03-.09.13-.11.24-.07.15.05.47.12.65.15,1.05.18,1.75-.52,2.48-1.5l9.18-12.1Zm-.42,9.48c.11.03.13-.03.14-.13l-.26-6.57c0-.36-.12-.39-.33-.1l-3.76,5.33c-.08.1-.04.16.02.18l4.19,1.29Z"/>
              <path class="cls-27" d="m188.34,53.73c-1.49,3.03-2.05,4.39-1.86,4.95.17.49.63.9,2.24,1.69,1.09.53,2.01.96,2.8.6.43-.2.89-.61,1.14-.97.1-.16.19-.24.32-.18.1.05.08.15-.03.37-.11.23-.86,1.39-1.32,1.91-.38.4-.48.46-1.57-.08-1.48-.73-2.54-1.3-3.39-1.74-.84-.47-1.47-.8-2.07-1.09-.08-.04-.44-.19-.85-.39-.42-.19-.89-.38-1.2-.54-.23-.11-.31-.21-.25-.33.03-.06.1-.1.23-.04.18.09.45.17.66.22.46.12.78-.28,1.16-.84.52-.82,1.33-2.45,2.3-4.42l1.78-3.63c1.58-3.22,1.87-3.79,2.15-4.47.3-.72.3-1.13-.31-1.61-.14-.12-.48-.32-.67-.4-.08-.04-.15-.12-.1-.21.06-.12.18-.11.41-.01.93.45,2.2,1.15,2.3,1.2.1.05,1.64.73,2.26,1.04.23.11.31.2.25.33-.04.08-.14.08-.23.04-.14-.07-.44-.19-.71-.27-.65-.19-.98.08-1.38.78-.36.64-.65,1.22-2.23,4.43l-1.8,3.67Z"/>
              <path class="cls-3" d="m200.93,60.91c-1.21,1.84-2.22,3.35-2.65,4.22-.31.59-.47,1.09.05,1.55.24.21.64.53.81.64.11.08.12.16.08.22-.06.1-.2.09-.41-.05-1.05-.7-2.22-1.55-2.32-1.62-.1-.06-1.34-.8-1.92-1.18-.21-.14-.28-.24-.2-.35.04-.06.12-.09.23-.01.17.11.43.23.63.3.43.18.81-.18,1.25-.68.63-.74,1.63-2.26,2.84-4.09l2.23-3.37c1.98-2.99,2.33-3.52,2.7-4.16.39-.68.42-1.13.06-1.5-.17-.2-.41-.38-.54-.47-.08-.05-.13-.14-.08-.21.08-.12.2-.09.41.05.63.41,1.8,1.27,1.89,1.34.1.06,1.34.8,1.91,1.18.21.14.28.24.21.36-.05.08-.15.06-.23.01-.13-.09-.26-.15-.52-.26-.58-.25-.95-.02-1.43.62-.44.59-.8,1.12-2.77,4.11l-2.23,3.37Z"/>
              <path class="cls-57" d="m211.97,69.55c-1.46,1.65-2.66,3.01-3.22,3.81-.39.54-.62,1.01-.16,1.54.21.25.56.62.71.76.1.09.09.17.05.22-.08.09-.21.06-.4-.1-.95-.84-1.99-1.85-2.07-1.92-.09-.08-1.22-.98-1.73-1.44-.19-.16-.24-.28-.15-.38.05-.05.12-.07.23.02.16.14.39.29.58.39.4.24.83-.07,1.34-.5.72-.65,1.93-2.01,3.39-3.66l6.44-7.28-2.58-2.22c-1.08-.93-1.6-1.17-2.24-1-.45.13-.61.2-.77.28-.17.09-.25.08-.32.02-.05-.04-.04-.13.05-.23.15-.17,1.8-1.35,1.96-1.45.13-.07.39-.24.46-.18.12.11.14.43.57.88.45.49,1.08,1.1,1.29,1.29l6.45,5.71c.55.48.98.8,1.3.99.29.2.49.28.56.34.09.08,0,.18-.09.28-.46.52-1.56,1.66-1.73,1.85-.14.15-.25.18-.32.12-.09-.08-.08-.16.12-.41l.15-.2c.4-.56.34-1.32-1.28-2.82l-2.14-1.95-6.44,7.28Z"/>
              <path class="cls-4" d="m221.78,80.87c.97-.78,1.22-1.27,1.55-1.92.18-.35,2.2-5.92,2.63-7.29.31-.98.39-1.79.35-2.29-.04-.41-.2-.84-.33-1-.07-.09-.11-.21-.02-.28.07-.06.18-.03.31.13.27.34,1.3,1.73,1.37,1.82.1.12.7.76,1.26,1.46.16.2.13.28.06.33-.07.06-.17-.04-.37-.14-.19-.09-.37-.09-.51.03-.22.17-.36.43-.51.79-.29.71-2.75,7.11-3.02,7.84,1.03-.26,6.78-1.13,7.66-1.25.56-.07.92-.24,1.16-.43.25-.2.39-.43.27-.69-.08-.21-.12-.34-.03-.41.07-.06.19.02.34.21.37.46.78,1.08.9,1.22.09.11,1.18,1.36,1.45,1.7.1.13.15.26.08.32-.09.07-.22.02-.34-.13-.16-.2-.5-.48-.91-.62-.5-.19-.87-.21-1.67-.22-1.19-.02-7.42.86-8.45,1.15-.86.25-1.41.69-2.01,1.17l-1.54,1.23c-.29.23-1.04.84-1.75,1.49-.49.45-.75.93-.39,1.53.17.28.45.7.58.87.09.11.06.18,0,.23-.09.07-.21.03-.37-.17-.79-.99-1.64-2.16-1.71-2.25-.07-.09-1.03-1.18-1.46-1.72-.16-.2-.19-.32-.09-.4.05-.04.14-.05.22.06.13.16.34.35.5.48.36.3.88.15,1.43-.24.8-.55,1.55-1.15,1.84-1.38l1.54-1.24Z"/>
            </g>
            <g>
              <path class="cls-36" d="m69.67,214.16c2.5-2.52,2.95-2.97,3.43-3.52.51-.58.64-.97.22-1.61-.1-.16-.35-.45-.5-.59-.06-.06-.1-.16-.03-.23.09-.1.21-.05.38.13.73.72,1.7,1.78,1.78,1.86.39.38,1.06.96,1.81,1.7,2.65,2.63,1.63,4.82.83,5.63-1.31,1.32-2.86,1.36-4.4,1.4.83,1.56,1.29,4.29-.59,6.19-1.71,1.73-4.85,2.18-7.61-.57-.18-.17-.66-.72-1.12-1.2-.44-.5-.87-.96-.94-1.03-.03-.03-.31-.31-.66-.62-.32-.32-.73-.66-.97-.9-.18-.18-.23-.29-.13-.39.05-.05.13-.06.22.03.15.15.37.31.55.42.39.26.82-.02,1.35-.42.75-.6,2.02-1.87,3.56-3.43l2.82-2.85Zm-.76,3.35c-1.23,1.24-3.23,3.25-3.45,3.51-.73.84-.96,1.06-.7,1.81.23.64.89,1.36,1.18,1.65.87.87,2.74,1.79,4.55-.04.97-.97,2.03-2.69,1.64-4.79-.18-.92-.54-1.37-.88-1.8-.18-.24-.99-1.04-1.23-1.28-.06-.06-.13-.06-.21.02l-.91.92Zm1.7-1.71c-.11.11-.11.18-.06.29.08.11.32.45.92,1.04.91.9,1.16,1.09,1.89,1.04.73-.05,1.54-.39,2.2-1.05,1.33-1.34,2.16-3.37.57-4.95-.18-.18-.53-.5-.86-.69-.18-.11-.27-.11-.37-.01l-4.3,4.33Z"/>
              <path class="cls-9" d="m81.35,224.82c2.11-2.85,2.49-3.36,2.89-3.98.42-.65.49-1.05-.01-1.63-.12-.15-.42-.39-.58-.51-.07-.05-.12-.14-.07-.22.08-.11.2-.08.4.07.42.31.91.68,1.3.99l.72.59c.13.1,3.77,2.79,4.2,3.08.36.24.68.42.85.49.1.05.23.03.32.1.05.04.02.13-.05.22-.09.13-.35.28-.78.75-.15.17-.79.95-.99,1.14-.09.08-.2.16-.28.11-.11-.08-.08-.2.03-.34.09-.13.31-.45.38-.74.09-.38.07-.74-.84-1.58-.29-.27-2.26-1.76-2.46-1.91-.08-.05-.15-.02-.25.1l-3.74,5.05c-.09.13-.12.2-.02.27.24.18,2.49,1.84,2.94,2.12.46.29.75.44,1.05.38.24-.05.37-.09.45-.04.06.04.06.11-.02.22-.08.11-.4.35-.9.92-.31.34-.85.99-.94,1.11-.11.15-.26.35-.39.25-.09-.07-.07-.17,0-.26.13-.18.27-.37.37-.66.11-.31.18-.74-.48-1.35-.45-.42-2.24-1.79-2.55-2.03-.09-.07-.17-.04-.22.03l-1.19,1.61c-.46.62-2.05,2.73-2.32,3.13-.88,1.3-.78,1.74,1.01,3.07.48.35,1.28.95,1.91,1.1.63.15,1.11-.05,1.8-.71.19-.18.28-.22.37-.15.11.08,0,.23-.1.35-.11.15-1.17,1.28-1.55,1.6-.48.38-.63.27-1.34-.25-1.37-1.02-2.35-1.8-3.05-2.35-.69-.56-1.11-.91-1.39-1.11-.04-.03-.35-.26-.74-.52-.37-.27-.81-.55-1.09-.75-.2-.15-.26-.25-.18-.36.04-.05.12-.08.23,0,.17.12.41.25.6.34.42.2.81-.14,1.28-.61.66-.7,1.73-2.15,3.03-3.9l2.38-3.22Z"/>
              <path class="cls-28" d="m87.08,241.23c-.2-.29-.18-.38.12-.92.55-1,1.06-1.75,1.26-2.06.14-.21.24-.29.34-.23.12.07.11.14.02.3-.1.18-.25.46-.35.77-.51,1.64.5,2.92,1.84,3.66,1.92,1.05,3.61.19,4.31-1.09.76-1.38.61-2.49-.33-4.85l-.49-1.23c-1.16-2.9-.97-4.4-.22-5.76,1.17-2.14,3.56-2.72,6.1-1.33.78.43,1.31.82,1.75,1.22.34.29.48.4.64.48.16.09.18.15.12.25-.06.1-.5.72-1.24,2.08-.18.32-.29.44-.39.38-.12-.06-.08-.17-.02-.35.11-.25.28-.85.29-1.14,0-.28-.08-1.42-1.92-2.42-1.38-.76-2.93-.48-3.73.97-.62,1.14-.5,2.14.6,4.69l.32.74c1.34,3.15,1.22,4.69.35,6.29-.45.82-1.6,2.16-3.51,2.38-1.19.13-2.4-.22-3.47-.81-.94-.52-1.78-1.16-2.38-2.01Z"/>
              <path class="cls-24" d="m108.52,244.36c-.76,2.05-1.39,3.73-1.62,4.66-.17.64-.22,1.16.39,1.49.28.15.74.37.93.44.13.05.15.13.12.19-.04.11-.17.13-.4.04-1.17-.44-2.49-1-2.6-1.04-.11-.04-1.48-.48-2.12-.72-.23-.09-.33-.17-.28-.3.02-.06.09-.11.22-.06.19.07.46.13.67.15.46.08.74-.35,1.05-.94.44-.86,1.07-2.54,1.83-4.59l3.36-9.02-3.17-1.13c-1.33-.47-1.9-.51-2.43-.13-.37.28-.49.4-.61.53-.13.15-.21.16-.29.13-.06-.02-.08-.1-.03-.23.08-.22,1.19-1.89,1.3-2.05.09-.11.28-.35.36-.33.15.06.28.35.84.61.59.3,1.39.64,1.64.74l7.99,2.98c.68.25,1.19.39,1.56.46.34.08.55.08.64.12.11.04.06.17.01.3-.24.64-.85,2.09-.94,2.32-.07.19-.17.25-.25.22-.11-.04-.13-.12-.03-.43l.06-.24c.18-.66-.16-1.35-2.19-2.15l-2.67-1.04-3.36,9.02Z"/>
              <path class="cls-54" d="m137.34,256.71c-.86.35-2.43.53-3.63.41-6.28-.63-8.37-5.72-7.96-9.79.37-3.67,3.57-8.58,9.81-7.95,5.09.51,8.57,4.14,8.04,9.39-.4,3.98-3.19,6.38-4.77,7.2l4.4,2.87c4.7,3.06,8.13,3.52,9.26,3.64,1.13.11,2.92.04,4.55-.43.14-.03.26-.06.33-.06.09.01.13.08.12.15-.01.09-.06.15-.2.21-1.35.46-3.98,1.18-7.34.84-2.74-.28-5.56-1.57-9.02-3.97l-3.59-2.49Zm-3-.39c2.04.21,6.37-.55,7.03-7.13.55-5.44-2.46-8.69-6.04-9.05-3.78-.38-6.86,1.82-7.36,6.78-.53,5.28,2.29,8.99,6.37,9.41Z"/>
              <path class="cls-25" d="m148.65,246.97c-.34-3.54-.4-4.17-.52-4.89-.12-.77-.34-1.11-1.1-1.2-.19-.03-.57-.01-.78,0-.09.01-.19-.03-.19-.12-.01-.13.09-.19.34-.22,1.02-.1,2.41-.17,2.61-.19.2-.02,1.56-.22,2.24-.29.25-.03.36.01.38.14.01.09-.08.15-.17.16-.16.01-.29.05-.56.12-.6.15-.75.57-.71,1.37.03.73.09,1.36.43,4.9l.31,3.17c.32,3.26,1.18,4.59,2.25,5.43,1.21.94,2.25,1.04,3.54.91,1.38-.13,2.68-.92,3.4-1.98.92-1.39,1-3.35.77-5.68l-.28-2.83c-.35-3.54-.4-4.17-.52-4.89-.12-.77-.34-1.11-1.1-1.2-.19-.03-.57,0-.78.01-.09,0-.19-.03-.2-.12-.01-.14.09-.19.35-.22,1.02-.1,2.28-.16,2.41-.17.16-.02,1.22-.19,1.9-.26.25-.02.37,0,.38.15,0,.09-.08.14-.17.15-.16.01-.29.05-.56.12-.6.2-.75.57-.71,1.37.03.73.09,1.36.43,4.9l.24,2.42c.24,2.45.23,5.19-1.42,6.98-1.49,1.61-3.17,2-4.5,2.13-.77.08-3.07.21-4.82-1.15-1.21-.96-2.23-2.46-2.55-5.77l-.32-3.31Z"/>
              <path class="cls-55" d="m170.34,237.52c.06-.8.12-.95.25-.99.13-.04.25.05.7.66.56.74,6.48,8.87,8.73,11.84,1.33,1.74,2.05,1.92,2.55,1.92.36.02.7-.05.92-.11.13-.04.22-.04.25.07.04.13-.15.23-.39.3-.33.09-1.93.53-3.46.9-.42.09-.67.16-.7.03-.03-.09.03-.15.11-.2.12-.08.2-.31-.03-.63l-3.52-4.84c-.06-.08-.12-.11-.23-.08l-4.72,1.28c-.11.03-.16.11-.17.24l-.26,4.25c-.04.6-.01,1.16.09,1.56.12.44.64.51,1.01.41l.22-.06c.15-.04.23-.02.25.07.04.13-.08.21-.28.26-.53.15-1.49.33-1.73.4-.24.07-1.43.46-2.46.74-.29.08-.43.07-.46-.06-.02-.09.05-.16.16-.18.15-.04.45-.15.63-.22.97-.41,1.19-1.36,1.28-2.57l1.27-15Zm4.68,8.16c.11-.03.09-.1.05-.18l-3.7-5.36c-.2-.3-.31-.27-.33.09l-.32,6.45c-.01.12.04.16.11.14l4.19-1.14Z"/>
              <path class="cls-45" d="m187.84,242.1c1.35,3.06,2.02,4.36,2.56,4.57.48.19,1.09.1,2.71-.62,1.1-.48,2.01-.91,2.25-1.73.13-.45.1-1.06,0-1.49-.05-.18-.06-.3.07-.35.1-.05.16.03.26.26.1.23.5,1.54.6,2.22.06.54.04.65-1.07,1.14-1.5.66-2.6,1.09-3.48,1.46-.9.34-1.55.6-2.16.87-.08.03-.43.21-.84.39-.41.2-.86.43-1.17.56-.23.1-.35.1-.41-.02-.03-.06-.01-.14.11-.2.19-.08.42-.24.59-.36.38-.27.28-.77.1-1.41-.28-.92-1-2.57-1.88-4.56l-1.61-3.67c-1.43-3.25-1.69-3.83-2.02-4.48-.35-.69-.67-.95-1.42-.79-.19.03-.55.17-.74.25-.08.04-.19.03-.22-.05-.05-.12.03-.21.26-.31.94-.41,2.28-.93,2.38-.97.1-.05,1.6-.78,2.22-1.05.23-.1.35-.11.41.02.04.08-.03.16-.11.2-.15.06-.43.21-.66.36-.56.37-.57.8-.29,1.54.25.69.51,1.27,1.93,4.52l1.63,3.71Z"/>
              <path class="cls-64" d="m200.66,235.49c1.11,1.88,2.02,3.43,2.6,4.2.39.53.77.89,1.4.63.3-.12.76-.34.93-.44.11-.07.19-.04.22.02.05.1,0,.22-.22.34-1.08.63-2.35,1.3-2.45,1.36-.1.06-1.3.84-1.89,1.19-.21.13-.34.15-.41.03-.03-.06-.03-.14.09-.21.18-.11.39-.28.54-.42.34-.31.19-.8-.07-1.41-.39-.88-1.3-2.43-2.4-4.31l-2.03-3.45c-1.8-3.06-2.12-3.61-2.53-4.21-.43-.64-.82-.86-1.31-.71-.25.07-.52.2-.66.28-.08.05-.18.05-.23-.02-.07-.12,0-.22.22-.34.65-.38,1.92-1.05,2.02-1.11.1-.06,1.3-.84,1.89-1.19.21-.13.34-.15.4-.03.05.08,0,.16-.09.21-.14.08-.24.17-.46.35-.47.41-.43.83-.07,1.55.33.65.65,1.2,2.45,4.26l2.03,3.45Z"/>
              <path class="cls-61" d="m212.18,227.52c1.34,1.72,2.44,3.14,3.12,3.83.46.48.87.79,1.47.44.28-.16.7-.43.87-.55.11-.09.19-.06.23,0,.07.09.02.22-.18.37-.99.77-2.16,1.59-2.25,1.66-.09.07-1.18,1.01-1.72,1.42-.2.15-.32.19-.4.08-.04-.06-.05-.14.06-.22.16-.13.35-.33.48-.49.3-.35.09-.82-.25-1.39-.5-.83-1.6-2.24-2.93-3.97l-5.9-7.6-2.63,2.1c-1.1.88-1.44,1.34-1.39,2,.04.46.08.62.13.79.06.19.03.26-.04.32-.05.04-.13.02-.21-.09-.14-.18-.98-2.01-1.05-2.18-.04-.14-.16-.43-.08-.48.13-.1.44-.06.96-.4.56-.35,1.27-.84,1.49-1.01l6.74-5.22c.57-.45.96-.8,1.2-1.08.24-.25.36-.42.43-.48.09-.07.18.04.26.15.42.54,1.33,1.82,1.48,2.02.12.16.12.28.05.33-.09.07-.17.04-.38-.2l-.17-.18c-.47-.5-1.22-.58-2.98.73l-2.29,1.72,5.9,7.6Z"/>
              <path class="cls-59" d="m223.81,217.87c-.89-.84-1.42-1.02-2.1-1.25-.37-.13-6.11-1.34-7.52-1.57-1-.16-1.8-.14-2.29-.02-.4.09-.79.32-.93.46-.08.09-.19.14-.27.06-.07-.06-.05-.17.08-.33.3-.31,1.51-1.51,1.59-1.59.11-.12.65-.8,1.26-1.44.17-.18.25-.17.32-.11.07.06-.01.18-.09.39-.06.19-.04.37.1.49.2.19.47.29.85.39.73.19,7.35,1.72,8.11,1.87-.4-.97-2.06-6.49-2.29-7.33-.15-.54-.37-.87-.58-1.07-.23-.22-.48-.32-.71-.17-.19.1-.32.17-.4.09-.07-.06,0-.19.14-.36.41-.43.96-.92,1.08-1.05.1-.1,1.17-1.34,1.46-1.66.11-.12.24-.19.3-.12.08.08.06.21-.06.34-.17.18-.4.56-.48.98-.11.52-.08.89.02,1.68.15,1.17,1.87,7.15,2.3,8.12.36.81.88,1.29,1.43,1.81l1.42,1.34c.27.25.96.9,1.7,1.51.51.42,1.02.61,1.55.18.25-.2.63-.53.77-.68.09-.1.17-.09.22-.04.09.08.06.21-.11.39-.86.91-1.89,1.91-1.97,1.99-.08.08-1.01,1.17-1.48,1.67-.17.18-.28.24-.38.14-.05-.05-.07-.13.03-.23.14-.15.29-.38.4-.56.25-.39.02-.88-.43-1.37-.65-.71-1.35-1.36-1.61-1.61l-1.43-1.34Z"/>
            </g>
          </g>
          <g>
            <g>
              <path class="cls-17" d="m65.03,75.85c-2.66-2.4-3.14-2.84-3.72-3.29-.61-.49-1-.6-1.63-.15-.16.11-.44.38-.58.54-.06.07-.16.1-.22.04-.1-.09-.06-.21.11-.38.7-.77,1.72-1.8,1.79-1.88.37-.41.92-1.12,1.63-1.91,2.53-2.8,4.79-1.87,5.64-1.1,1.4,1.26,1.51,2.82,1.62,4.38,1.53-.91,4.27-1.5,6.26.3,1.83,1.65,2.43,4.79-.21,7.71-.17.19-.69.7-1.16,1.18-.48.46-.93.92-.99.99-.03.03-.29.33-.6.7-.31.34-.63.76-.86,1.02-.17.19-.28.24-.38.15-.05-.05-.07-.13.02-.23.14-.15.29-.39.39-.57.24-.4-.06-.83-.49-1.34-.64-.73-1.98-1.95-3.62-3.43l-3-2.71Zm1.61-1.02c.12.11.18.1.3.05.11-.09.44-.35,1.01-.98.86-.96,1.04-1.22.96-1.95-.09-.73-.47-1.54-1.17-2.17-1.41-1.28-3.5-2.02-5.01-.35-.17.19-.47.56-.65.9-.1.19-.1.28,0,.37l4.57,4.13Zm1.81,1.63c1.32,1.19,3.43,3.09,3.7,3.31.88.7,1.12.92,1.86.62.64-.26,1.33-.96,1.61-1.27.83-.92,1.68-2.86-.25-4.59-1.02-.93-2.82-1.92-4.91-1.43-.91.23-1.35.61-1.77.97-.24.19-1,1.04-1.23,1.3-.06.07-.06.13.03.21l.97.88Z"/>
              <path class="cls-33" d="m77.01,63.78c-2.25-2.79-2.66-3.28-3.16-3.82-.53-.58-.9-.75-1.59-.4-.17.08-.49.31-.65.44-.07.06-.17.08-.23,0-.09-.11-.03-.22.17-.37.41-.33.89-.72,1.3-1.02l.76-.56c.12-.1,3.67-2.98,4.07-3.33.33-.29.58-.56.69-.71.07-.09.09-.22.18-.29.05-.04.13.01.2.1.1.12.18.41.53.95.13.19.73,1.01.87,1.25.06.11.11.24.03.3-.11.09-.22.03-.33-.12-.1-.13-.36-.41-.63-.55-.36-.19-.71-.26-1.76.42-.33.21-2.29,1.77-2.49,1.93-.07.06-.06.14.03.27l3.99,4.92c.1.13.16.17.25.09.23-.19,2.42-1.97,2.81-2.34.4-.38.62-.62.64-.93.01-.25,0-.39.08-.45.05-.04.12-.04.2.07.09.11.24.48.67,1.11.25.38.75,1.07.85,1.2.11.14.28.34.15.44-.09.07-.18.03-.26-.06-.15-.18-.29-.36-.55-.53-.28-.2-.68-.37-1.43.13-.53.34-2.32,1.73-2.63,1.98-.09.07-.08.16-.02.23l1.27,1.57c.49.61,2.15,2.69,2.47,3.05,1.05,1.19,1.51,1.2,3.26-.21.46-.38,1.25-1.01,1.55-1.59.31-.57.23-1.1-.24-1.93-.13-.23-.15-.33-.06-.4.11-.09.23.06.33.18.12.14.96,1.47,1.17,1.92.25.56.11.68-.59,1.24-1.34,1.08-2.35,1.84-3.05,2.39-.73.53-1.17.86-1.44,1.07-.04.03-.34.28-.7.6-.35.29-.74.66-1.01.88-.2.16-.31.2-.4.09-.04-.05-.05-.14.06-.23.16-.13.34-.34.48-.5.3-.36.07-.83-.28-1.4-.52-.82-1.66-2.23-3.05-3.94l-2.55-3.14Z"/>
              <path class="cls-5" d="m93.59,64.28c-.36.02-.42-.04-.74-.58-.59-.99-.97-1.82-1.14-2.15-.11-.23-.13-.35-.03-.41.12-.07.17-.02.27.14.1.18.27.45.49.7,1.16,1.29,2.79,1.07,4.12.29,1.9-1.12,2.02-3.04,1.27-4.3-.81-1.36-1.85-1.82-4.38-2.21l-1.32-.21c-3.11-.48-4.31-1.42-5.11-2.77-1.25-2.11-.52-4.49,1.99-5.98.77-.45,1.39-.72,1.96-.89.42-.14.59-.22.75-.31.16-.09.22-.08.28.02.06.1.36.8,1.16,2.14.18.32.23.48.13.54-.12.07-.2-.02-.31-.16-.16-.23-.6-.69-.84-.84-.25-.15-1.27-.66-3.09.41-1.36.81-1.93,2.29-1.08,3.73.67,1.13,1.6,1.54,4.38,1.9l.81.11c3.42.46,4.7,1.36,5.64,2.94.48.81,1.05,2.5.26,4.28-.5,1.09-1.43,1.96-2.5,2.6-.93.55-1.92.95-2.97,1.03Z"/>
              <path class="cls-20" d="m108.55,49.63c.81,2.05,1.48,3.73,1.95,4.59.31.59.63,1.01,1.3.84.32-.08.8-.22.99-.3.13-.05.2,0,.23.06.04.11-.04.21-.27.31-1.18.47-2.54.94-2.65.98-.1.04-1.42.64-2.06.9-.23.09-.36.09-.41-.04-.02-.07,0-.15.12-.2.19-.08.43-.22.61-.34.39-.26.31-.77.15-1.42-.25-.94-.92-2.62-1.73-4.67l-3.58-9.02-3.14,1.3c-1.31.55-1.77.9-1.9,1.55-.09.45-.1.63-.1.8,0,.2-.04.27-.13.3-.06.03-.13-.02-.18-.15-.09-.21-.39-2.22-.41-2.4,0-.15-.03-.46.05-.49.15-.06.45.07,1.04-.12.65-.18,1.47-.46,1.73-.56l8-3.18c.68-.27,1.15-.51,1.47-.71.3-.17.47-.31.55-.35.11-.04.16.09.21.22.25.64.77,2.14.87,2.37.08.19.04.3-.04.34-.1.04-.17,0-.31-.3l-.12-.23c-.32-.61-1.02-.9-3.09-.13l-2.71,1.03,3.58,9.03Z"/>
              <path class="cls-31" d="m138.66,49.28c-.78.52-2.3,1.02-3.51,1.14-6.34.64-9.43-3.97-9.84-8.09-.37-3.71,1.8-9.21,8.11-9.84,5.14-.52,9.31,2.37,9.85,7.67.4,4.03-1.87,6.96-3.28,8.09l4.93,1.95c5.27,2.08,8.75,1.85,9.9,1.73,1.15-.11,2.9-.54,4.41-1.34.13-.06.25-.12.31-.13.09-.01.14.06.15.13,0,.09-.03.16-.16.25-1.24.73-3.71,1.97-7.09,2.31-2.77.28-5.82-.43-9.73-2.12l-4.05-1.74Zm-3.05.21c2.06-.21,6.19-1.82,5.53-8.47-.55-5.49-4.19-8.1-7.8-7.74-3.82.38-6.43,3.18-5.92,8.19.54,5.33,4.08,8.44,8.19,8.02Z"/>
              <path class="cls-49" d="m149.49,38.83c.41-3.56.48-4.2.52-4.94.04-.78-.1-1.16-.83-1.41-.18-.07-.56-.14-.77-.16-.09-.01-.18-.07-.16-.16.01-.14.13-.17.38-.15,1.03.12,2.41.34,2.62.37.2.02,1.58.11,2.27.2.25.03.36.09.35.22-.01.09-.11.13-.2.12-.16-.02-.3-.01-.58,0-.63.02-.86.41-1,1.2-.13.72-.2,1.36-.61,4.92l-.36,3.19c-.38,3.28.19,4.78,1.06,5.83,1,1.18,2,1.5,3.3,1.65,1.39.16,2.84-.34,3.77-1.23,1.2-1.18,1.7-3.08,1.97-5.44l.33-2.85c.41-3.56.48-4.2.52-4.93.04-.78-.1-1.17-.83-1.42-.18-.07-.56-.13-.77-.16-.09,0-.18-.07-.17-.16.02-.14.13-.17.39-.15,1.03.12,2.27.33,2.41.35.16.02,1.24.07,1.93.16.25.03.36.09.34.23-.01.09-.11.13-.2.12-.16-.02-.3-.01-.58,0-.63.07-.85.41-.99,1.2-.13.73-.21,1.36-.61,4.92l-.28,2.44c-.29,2.46-.87,5.17-2.88,6.58-1.81,1.27-3.55,1.3-4.89,1.15-.77-.09-3.07-.44-4.51-2.16-.99-1.2-1.68-2.9-1.3-6.23l.39-3.33Z"/>
              <path class="cls-69" d="m175.89,37.47c.48-.64.61-.75.75-.71.13.04.18.18.24.94.07.94.73,11.06,1.04,14.81.19,2.2.71,2.74,1.14,3.02.3.21.62.33.84.4.13.04.21.09.18.2-.04.13-.25.12-.5.04-.33-.1-1.93-.59-3.43-1.1-.41-.15-.66-.23-.61-.35.03-.09.11-.11.2-.11.14,0,.34-.16.31-.55l-.38-6.03c-.02-.1-.05-.16-.16-.19l-4.72-1.45c-.11-.03-.2.01-.27.11l-2.52,3.48c-.36.49-.64.99-.76,1.38-.13.44.27.78.64.9l.22.07c.15.05.2.11.18.2-.04.13-.19.14-.38.08-.53-.16-1.45-.52-1.69-.59-.24-.08-1.47-.38-2.5-.7-.28-.09-.4-.17-.36-.3.03-.09.13-.11.24-.07.15.05.47.12.65.15,1.05.18,1.74-.52,2.48-1.5l9.18-12.1Zm-.42,9.48c.11.04.13-.03.14-.13l-.26-6.57c0-.36-.12-.4-.33-.1l-3.76,5.33c-.08.1-.05.15.02.17l4.19,1.29Z"/>
              <path class="cls-1" d="m187.46,52.85c-1.49,3.03-2.05,4.39-1.86,4.94.17.49.63.9,2.24,1.69,1.09.53,2.01.96,2.8.61.43-.2.89-.61,1.14-.98.1-.16.2-.24.32-.18.1.05.08.14-.02.37-.11.23-.86,1.39-1.32,1.91-.38.4-.48.46-1.58-.08-1.48-.73-2.54-1.3-3.39-1.74-.84-.46-1.47-.8-2.07-1.09-.08-.04-.44-.19-.85-.39-.42-.18-.89-.38-1.2-.54-.23-.11-.31-.2-.25-.33.03-.06.1-.1.23-.04.19.09.45.17.66.22.46.12.78-.28,1.16-.84.53-.82,1.33-2.44,2.3-4.42l1.78-3.63c1.58-3.22,1.87-3.79,2.15-4.47.3-.72.3-1.13-.31-1.61-.14-.12-.48-.32-.67-.4-.08-.04-.15-.12-.1-.21.06-.12.19-.11.41-.01.93.46,2.2,1.15,2.3,1.21.1.05,1.64.73,2.26,1.04.23.11.31.2.25.33-.04.08-.14.08-.23.04-.14-.07-.44-.19-.71-.27-.65-.19-.99.08-1.38.78-.36.64-.65,1.21-2.23,4.43l-1.8,3.67Z"/>
              <path class="cls-42" d="m200.05,60.03c-1.21,1.84-2.22,3.35-2.65,4.22-.31.59-.47,1.09.05,1.55.24.22.64.53.81.65.11.08.12.16.08.22-.06.1-.2.09-.41-.05-1.05-.7-2.22-1.55-2.32-1.62-.1-.06-1.34-.81-1.91-1.19-.21-.14-.28-.24-.21-.35.04-.06.12-.09.23-.01.18.11.43.23.63.3.43.18.81-.18,1.25-.68.63-.74,1.63-2.25,2.84-4.09l2.23-3.37c1.98-2.99,2.33-3.52,2.7-4.16.39-.67.42-1.13.06-1.5-.17-.2-.41-.38-.54-.47-.08-.05-.13-.14-.08-.22.08-.12.2-.09.41.05.63.42,1.8,1.27,1.9,1.34.1.06,1.34.8,1.91,1.18.21.14.28.24.2.35-.05.08-.15.06-.23.01-.13-.09-.26-.15-.52-.26-.58-.25-.95-.02-1.43.62-.44.59-.8,1.12-2.77,4.11l-2.23,3.37Z"/>
              <path class="cls-22" d="m211.09,68.67c-1.46,1.65-2.66,3.01-3.22,3.81-.39.54-.62,1.02-.17,1.54.21.25.56.61.71.75.1.09.09.17.04.22-.08.09-.21.06-.39-.1-.95-.84-1.99-1.85-2.07-1.92-.09-.08-1.22-.98-1.73-1.44-.19-.17-.24-.28-.15-.38.04-.05.12-.07.23.02.16.14.39.29.58.39.4.24.83-.07,1.34-.5.72-.65,1.92-2.01,3.39-3.66l6.44-7.28-2.58-2.22c-1.08-.93-1.6-1.17-2.24-1-.45.13-.61.2-.77.28-.17.09-.25.08-.32.02-.05-.04-.04-.13.05-.23.15-.17,1.8-1.35,1.96-1.45.13-.07.39-.24.46-.18.12.11.14.43.57.88.45.49,1.08,1.1,1.28,1.29l6.45,5.71c.55.49.98.8,1.3.99.29.2.49.28.56.34.09.08,0,.18-.09.28-.46.52-1.56,1.66-1.72,1.85-.14.15-.25.18-.32.12-.09-.07-.08-.16.12-.41l.15-.21c.41-.56.34-1.32-1.28-2.82l-2.14-1.95-6.43,7.28Z"/>
              <path class="cls-21" d="m220.89,79.99c.97-.78,1.22-1.27,1.55-1.92.19-.35,2.2-5.92,2.63-7.29.31-.98.39-1.79.35-2.28-.04-.41-.2-.84-.33-1-.07-.09-.11-.21-.02-.28.07-.06.18-.03.32.13.27.34,1.3,1.73,1.37,1.82.1.12.7.76,1.26,1.46.16.2.13.28.06.33-.07.06-.18-.03-.38-.14-.19-.09-.36-.09-.51.03-.22.17-.36.43-.51.79-.29.7-2.75,7.1-3.02,7.84,1.03-.27,6.78-1.14,7.66-1.25.56-.07.92-.24,1.16-.43.25-.2.39-.43.27-.69-.08-.21-.12-.34-.04-.41.07-.06.19.02.34.21.37.46.78,1.08.9,1.22.09.11,1.18,1.36,1.45,1.7.1.13.15.26.08.32-.09.07-.22.03-.34-.12-.16-.2-.5-.48-.91-.62-.5-.19-.88-.21-1.68-.22-1.19-.02-7.42.86-8.45,1.15-.86.25-1.41.69-2.01,1.17l-1.54,1.23c-.29.23-1.04.84-1.75,1.5-.49.45-.75.93-.39,1.52.16.28.45.7.57.87.09.11.06.19,0,.23-.09.07-.21.03-.37-.17-.79-.99-1.64-2.16-1.71-2.25-.07-.09-1.03-1.18-1.46-1.72-.16-.2-.19-.31-.09-.4.05-.04.14-.05.22.06.13.16.34.35.5.48.36.3.88.15,1.43-.24.8-.55,1.55-1.15,1.83-1.38l1.54-1.24Z"/>
            </g>
            <g>
              <path class="cls-11" d="m68.79,213.28c2.5-2.52,2.95-2.97,3.43-3.52.51-.58.64-.97.22-1.61-.1-.16-.35-.45-.5-.59-.06-.06-.1-.16-.03-.22.09-.1.21-.05.38.13.73.72,1.7,1.78,1.78,1.86.39.38,1.06.96,1.81,1.69,2.65,2.63,1.63,4.82.83,5.63-1.31,1.32-2.86,1.36-4.4,1.4.83,1.56,1.29,4.3-.59,6.19-1.72,1.73-4.85,2.18-7.62-.56-.18-.18-.66-.72-1.12-1.2-.44-.5-.87-.96-.94-1.03-.03-.03-.31-.31-.66-.62-.32-.32-.73-.66-.97-.9-.18-.18-.23-.29-.13-.38.05-.05.13-.07.23.03.15.15.37.31.55.42.39.26.82-.02,1.35-.42.75-.6,2.02-1.88,3.56-3.43l2.82-2.84Zm-.76,3.35c-1.23,1.24-3.22,3.25-3.45,3.51-.74.84-.96,1.06-.7,1.8.23.64.89,1.36,1.18,1.65.87.87,2.74,1.79,4.56-.04.96-.97,2.04-2.69,1.64-4.79-.18-.92-.54-1.37-.88-1.8-.18-.24-.99-1.04-1.23-1.28-.06-.06-.13-.06-.21.02l-.91.92Zm1.7-1.71c-.11.11-.11.18-.06.29.08.11.32.45.92,1.04.9.9,1.16,1.09,1.89,1.04.73-.05,1.55-.39,2.2-1.06,1.33-1.34,2.16-3.37.57-4.95-.18-.18-.53-.49-.86-.69-.18-.11-.27-.11-.37-.01l-4.3,4.33Z"/>
              <path class="cls-26" d="m80.47,223.93c2.11-2.85,2.49-3.36,2.89-3.98.42-.65.49-1.05-.02-1.63-.12-.14-.42-.39-.58-.51-.07-.06-.12-.15-.07-.22.08-.11.2-.08.4.07.42.31.91.68,1.31.99l.72.59c.13.1,3.77,2.79,4.2,3.08.36.24.68.42.85.49.1.05.23.03.33.1.05.04.02.13-.05.22-.09.13-.35.28-.78.75-.15.17-.79.95-.99,1.14-.09.08-.21.16-.28.11-.11-.08-.08-.2.03-.34.09-.13.31-.45.38-.74.09-.38.07-.74-.84-1.58-.29-.27-2.26-1.76-2.46-1.91-.08-.06-.15-.03-.25.1l-3.74,5.05c-.09.13-.12.19-.03.26.24.18,2.49,1.84,2.94,2.12.46.29.75.44,1.05.38.24-.05.38-.09.45-.03.05.04.06.1-.02.21-.08.11-.4.35-.9.92-.31.34-.85.99-.94,1.11-.11.15-.26.35-.38.26-.09-.07-.07-.17,0-.26.13-.18.27-.37.37-.66.11-.31.18-.74-.48-1.35-.45-.42-2.23-1.79-2.55-2.03-.09-.07-.17-.04-.22.04l-1.19,1.61c-.46.62-2.05,2.73-2.32,3.13-.88,1.3-.78,1.74,1.01,3.07.48.35,1.28.95,1.9,1.1.63.15,1.11-.05,1.8-.7.18-.18.28-.22.37-.15.11.08,0,.23-.1.35-.11.15-1.17,1.28-1.55,1.6-.48.38-.63.27-1.34-.25-1.37-1.01-2.35-1.8-3.05-2.35-.69-.56-1.11-.91-1.39-1.11-.03-.03-.35-.26-.74-.52-.37-.27-.82-.55-1.09-.75-.2-.15-.26-.25-.18-.36.04-.06.12-.09.23,0,.17.12.41.25.61.34.42.2.81-.14,1.28-.61.66-.7,1.73-2.15,3.03-3.9l2.38-3.22Z"/>
              <path class="cls-60" d="m86.19,240.35c-.2-.29-.18-.38.12-.92.55-1,1.06-1.75,1.26-2.06.14-.21.24-.29.33-.23.12.06.11.13.02.3-.1.18-.26.46-.35.77-.51,1.64.5,2.93,1.84,3.66,1.92,1.05,3.61.19,4.31-1.09.75-1.38.61-2.49-.33-4.85l-.49-1.23c-1.16-2.9-.97-4.4-.22-5.76,1.17-2.14,3.56-2.72,6.1-1.34.78.43,1.32.82,1.75,1.22.34.29.48.4.64.48.16.09.18.15.13.25-.06.1-.5.72-1.24,2.07-.17.32-.29.44-.39.38-.12-.07-.08-.18-.01-.35.11-.25.28-.86.29-1.14,0-.29-.08-1.42-1.92-2.42-1.38-.75-2.93-.48-3.72.97-.62,1.14-.5,2.14.6,4.69l.32.74c1.34,3.15,1.22,4.69.35,6.29-.45.82-1.6,2.16-3.51,2.38-1.19.13-2.4-.22-3.47-.81-.94-.51-1.78-1.16-2.38-2.01Z"/>
              <path class="cls-40" d="m107.64,243.47c-.76,2.05-1.39,3.73-1.62,4.67-.16.64-.21,1.16.39,1.48.28.15.73.37.93.44.13.05.15.13.12.2-.04.11-.17.13-.4.04-1.17-.44-2.49-1.01-2.6-1.04-.11-.04-1.48-.47-2.12-.72-.23-.09-.32-.17-.28-.3.02-.06.09-.11.22-.07.19.07.46.13.67.15.46.08.74-.35,1.05-.94.44-.86,1.07-2.54,1.83-4.59l3.36-9.02-3.17-1.13c-1.33-.47-1.9-.52-2.43-.13-.37.28-.49.4-.61.53-.13.15-.21.17-.29.13-.06-.02-.08-.1-.04-.23.08-.22,1.19-1.89,1.3-2.05.09-.11.28-.35.36-.32.15.05.28.35.84.6.59.3,1.39.64,1.64.74l8,2.98c.68.25,1.19.39,1.55.46.34.08.55.09.64.12.11.04.06.17.01.3-.24.64-.85,2.08-.94,2.32-.07.19-.17.26-.25.22-.11-.04-.13-.12-.04-.43l.06-.24c.18-.66-.15-1.34-2.19-2.15l-2.67-1.04-3.36,9.02Z"/>
              <path class="cls-62" d="m136.46,255.84c-.86.35-2.43.53-3.63.41-6.28-.63-8.37-5.72-7.96-9.8.37-3.67,3.57-8.58,9.81-7.95,5.09.51,8.57,4.14,8.04,9.39-.4,3.98-3.19,6.38-4.78,7.2l4.4,2.87c4.7,3.06,8.13,3.52,9.26,3.64,1.13.11,2.92.04,4.55-.43.14-.03.26-.06.33-.06.09,0,.13.08.12.15,0,.09-.06.15-.2.21-1.35.46-3.99,1.18-7.34.84-2.74-.28-5.56-1.57-9.02-3.97l-3.59-2.49Zm-3-.39c2.04.21,6.37-.55,7.03-7.13.55-5.43-2.46-8.69-6.04-9.05-3.78-.38-6.86,1.82-7.36,6.78-.54,5.28,2.29,9,6.37,9.41Z"/>
              <path class="cls-53" d="m147.77,246.09c-.34-3.53-.41-4.17-.52-4.89-.12-.77-.34-1.11-1.1-1.2-.19-.03-.57-.01-.78,0-.09.01-.19-.03-.19-.12-.01-.13.09-.19.34-.22,1.02-.1,2.41-.17,2.61-.19.21-.02,1.56-.22,2.24-.29.25-.02.36.01.38.15.01.09-.08.15-.17.15-.16.02-.29.05-.56.12-.6.15-.74.58-.71,1.37.02.73.09,1.37.43,4.9l.31,3.17c.32,3.26,1.18,4.6,2.25,5.43,1.21.94,2.25,1.04,3.54.91,1.38-.13,2.68-.92,3.4-1.98.92-1.39,1-3.34.77-5.68l-.28-2.83c-.34-3.54-.41-4.17-.52-4.89-.12-.77-.34-1.11-1.1-1.2-.19-.03-.57-.01-.78.01-.09,0-.19-.03-.19-.12-.01-.14.09-.19.35-.22,1.02-.1,2.27-.15,2.41-.17.16-.02,1.22-.19,1.89-.25.25-.03.37.01.38.15,0,.09-.08.14-.17.15-.16.02-.29.05-.56.12-.6.2-.74.57-.71,1.37.02.73.09,1.36.43,4.9l.24,2.42c.24,2.45.23,5.19-1.42,6.98-1.49,1.61-3.17,2-4.5,2.13-.77.08-3.07.21-4.82-1.15-1.21-.96-2.23-2.46-2.55-5.76l-.32-3.31Z"/>
              <path class="cls-50" d="m169.46,236.64c.06-.8.12-.95.25-.99.13-.04.25.05.7.66.56.74,6.47,8.87,8.73,11.84,1.32,1.74,2.05,1.92,2.55,1.92.36.02.7-.05.92-.11.13-.04.22-.04.25.07.04.13-.15.23-.39.3-.33.09-1.93.53-3.46.9-.42.09-.67.16-.7.03-.02-.09.03-.15.11-.2.12-.08.2-.31-.03-.63l-3.52-4.85c-.07-.08-.12-.11-.23-.08l-4.72,1.28c-.11.03-.16.12-.17.24l-.26,4.25c-.04.61-.01,1.16.09,1.56.12.44.64.51,1.01.41l.22-.06c.15-.04.23-.02.25.07.04.13-.08.21-.28.26-.53.15-1.49.34-1.73.4-.24.07-1.43.46-2.46.75-.29.08-.43.07-.46-.06-.03-.09.05-.16.16-.19.16-.04.45-.15.63-.22.97-.41,1.19-1.36,1.28-2.57l1.27-15Zm4.68,8.16c.11-.03.09-.1.05-.18l-3.7-5.36c-.2-.3-.31-.27-.33.09l-.32,6.45c-.01.12.04.16.11.14l4.19-1.14Z"/>
              <path class="cls-51" d="m186.96,241.22c1.35,3.06,2.02,4.36,2.56,4.57.48.19,1.09.1,2.71-.62,1.1-.48,2.01-.91,2.25-1.73.12-.45.1-1.06,0-1.49-.05-.18-.06-.3.07-.35.1-.04.16.03.26.26.1.23.5,1.54.61,2.22.06.54.04.65-1.07,1.14-1.5.66-2.6,1.09-3.48,1.46-.9.34-1.55.6-2.16.87-.08.04-.43.21-.84.39-.41.2-.86.43-1.17.56-.23.1-.35.1-.41-.02-.03-.06-.01-.14.11-.2.19-.08.42-.24.59-.36.38-.27.28-.77.1-1.41-.28-.93-1-2.57-1.88-4.57l-1.61-3.67c-1.43-3.25-1.69-3.83-2.02-4.48-.35-.69-.67-.95-1.42-.8-.19.03-.55.17-.74.25-.08.04-.18.03-.22-.05-.05-.12.03-.21.26-.31.94-.41,2.28-.93,2.38-.97.1-.05,1.6-.78,2.22-1.05.23-.1.35-.1.41.02.03.09-.03.16-.11.2-.15.06-.43.21-.66.36-.56.37-.57.8-.29,1.54.25.69.51,1.27,1.93,4.52l1.63,3.71Z"/>
              <path class="cls-32" d="m199.77,234.6c1.11,1.88,2.02,3.43,2.6,4.2.39.53.77.9,1.4.63.3-.12.75-.33.93-.44.11-.07.19-.04.22.02.06.1,0,.22-.22.34-1.08.63-2.35,1.3-2.45,1.36-.1.06-1.3.84-1.88,1.19-.21.13-.34.15-.41.03-.03-.06-.03-.14.09-.21.18-.1.39-.28.54-.42.34-.31.19-.8-.06-1.41-.39-.88-1.3-2.43-2.4-4.31l-2.03-3.45c-1.8-3.06-2.12-3.61-2.53-4.21-.43-.64-.82-.86-1.31-.71-.25.07-.52.2-.66.28-.08.05-.18.05-.23-.03-.07-.12,0-.22.22-.34.65-.38,1.92-1.05,2.02-1.11s1.3-.84,1.89-1.18c.22-.13.34-.15.41-.03.04.08,0,.16-.09.21-.14.08-.25.17-.46.35-.47.41-.43.84-.07,1.55.33.65.65,1.2,2.45,4.26l2.03,3.45Z"/>
              <path class="cls-58" d="m211.3,226.64c1.34,1.72,2.44,3.15,3.12,3.83.46.48.87.79,1.47.44.28-.16.7-.43.87-.55.11-.09.18-.06.23,0,.07.09.02.21-.18.36-.99.77-2.16,1.6-2.25,1.66-.09.07-1.18,1-1.72,1.42-.2.15-.32.19-.4.08-.04-.05-.05-.14.06-.22.16-.13.35-.33.48-.49.3-.35.09-.81-.25-1.39-.5-.82-1.6-2.24-2.93-3.97l-5.9-7.6-2.63,2.1c-1.1.88-1.44,1.34-1.39,2,.04.46.08.63.13.8.05.18.03.26-.04.32-.05.04-.13.01-.22-.09-.14-.18-.98-2.01-1.05-2.18-.04-.14-.16-.42-.08-.48.13-.1.45-.06.96-.4.57-.35,1.27-.84,1.49-1.01l6.74-5.23c.58-.45.96-.8,1.2-1.08.24-.25.36-.42.43-.48.09-.07.18.04.26.15.42.54,1.33,1.82,1.48,2.02.12.16.12.28.05.33-.09.07-.17.04-.38-.19l-.17-.19c-.47-.5-1.22-.58-2.98.73l-2.29,1.72,5.9,7.6Z"/>
              <path class="cls-39" d="m222.92,216.98c-.9-.84-1.42-1.01-2.1-1.25-.37-.13-6.11-1.34-7.52-1.56-1.01-.16-1.8-.14-2.29-.03-.4.09-.79.32-.94.46-.08.09-.19.14-.27.06-.07-.06-.06-.18.08-.33.3-.32,1.51-1.51,1.59-1.6.11-.12.65-.79,1.27-1.44.17-.18.25-.17.32-.11.07.06-.01.18-.09.39-.06.19-.04.37.1.49.2.19.47.29.85.39.73.19,7.35,1.72,8.11,1.87-.4-.97-2.06-6.48-2.29-7.33-.15-.54-.37-.88-.58-1.07-.23-.22-.48-.33-.71-.17-.19.1-.32.17-.4.09-.06-.06,0-.19.14-.36.4-.43.95-.92,1.08-1.05.1-.1,1.16-1.34,1.46-1.66.11-.12.24-.19.3-.12.08.08.06.21-.06.34-.17.18-.4.56-.48.98-.11.52-.08.89.02,1.68.15,1.17,1.87,7.15,2.3,8.12.36.81.88,1.29,1.43,1.8l1.42,1.34c.27.25.96.9,1.7,1.51.51.42,1.02.61,1.55.18.25-.2.63-.53.77-.68.09-.1.17-.09.22-.04.09.08.06.21-.11.39-.86.91-1.89,1.91-1.97,1.99-.08.09-1.01,1.17-1.48,1.67-.17.18-.28.24-.38.14-.05-.05-.07-.13.03-.23.14-.15.29-.38.4-.56.25-.39.02-.89-.43-1.37-.65-.71-1.35-1.36-1.61-1.61l-1.43-1.34Z"/>
            </g>
          </g>
          <g>
            <g>
              <path class="cls-47" d="m50.55,141.66c0-3.67,0-4.35-.05-5.12-.05-.82-.24-1.2-1.04-1.37-.19-.05-.6-.07-.94-.07-.26,0-.41-.05-.41-.22s.17-.22.53-.22c1.28,0,2.8.07,3.47.07.99,0,2.39-.07,3.5-.07,3.02,0,4.1,1.01,4.49,1.37.53.51,1.21,1.6,1.21,2.87,0,3.43-2.51,5.84-5.94,5.84-.12,0-.39,0-.51-.02-.12-.02-.29-.05-.29-.22,0-.2.17-.27.68-.27,1.35,0,3.24-1.52,3.24-3.98,0-.8-.07-2.41-1.42-3.62-.87-.8-1.86-.94-2.41-.94-.36,0-.72.02-.94.1-.12.05-.19.19-.19.46v9.66c0,2.22,0,4.12.12,5.16.07.68.22,1.21.94,1.3.34.05.87.1,1.23.1.27,0,.38.07.38.19,0,.17-.19.24-.46.24-1.59,0-3.11-.07-3.74-.07-.55,0-2.07.07-3.04.07-.31,0-.48-.07-.48-.24,0-.12.1-.19.38-.19.36,0,.65-.05.87-.1.48-.09.6-.62.7-1.33.12-1.02.12-2.92.12-5.14v-4.25Z"/>
              <path class="cls-29" d="m76.03,141.66c0-3.67,0-4.35-.05-5.12-.05-.82-.24-1.2-1.04-1.37-.19-.05-.6-.07-.94-.07-.27,0-.41-.05-.41-.22s.17-.22.53-.22c1.28,0,2.8.07,3.31.07.82,0,2.66-.07,3.4-.07,1.52,0,3.14.14,4.44,1.04.68.46,1.64,1.69,1.64,3.31,0,1.78-.75,3.43-3.19,5.41,2.15,2.7,3.81,4.85,5.24,6.35,1.35,1.4,2.34,1.57,2.7,1.64.27.05.48.08.67.08s.29.07.29.19c0,.19-.17.24-.46.24h-2.29c-1.35,0-1.96-.12-2.58-.45-1.04-.56-1.95-1.69-3.31-3.55-.97-1.33-2.07-2.97-2.39-3.33-.12-.15-.26-.17-.43-.17l-2.1-.05c-.12,0-.19.05-.19.2v.34c0,2.25,0,4.15.12,5.16.07.7.22,1.23.94,1.33.36.05.89.1,1.18.1.19,0,.29.07.29.19,0,.17-.17.24-.48.24-1.4,0-3.19-.07-3.55-.07-.46,0-1.98.07-2.94.07-.32,0-.48-.07-.48-.24,0-.12.1-.19.39-.19.36,0,.65-.05.87-.1.48-.09.6-.62.7-1.33.12-1.02.12-2.92.12-5.14v-4.25Zm2.85,1.91c0,.27.05.36.22.43.5.17,1.23.24,1.83.24.97,0,1.28-.1,1.71-.41.72-.53,1.42-1.64,1.42-3.62,0-3.43-2.27-4.41-3.69-4.41-.6,0-1.04.02-1.28.1-.17.05-.22.14-.22.33v7.34Z"/>
              <path class="cls-30" d="m103.92,141.66c0-3.67,0-4.35-.05-5.12-.05-.82-.24-1.2-1.04-1.37-.19-.05-.6-.07-.94-.07-.27,0-.41-.05-.41-.22s.17-.22.53-.22c.65,0,1.35.02,1.95.02.63.02,1.18.05,1.52.05.77,0,5.57,0,6.03-.02.46-.05.84-.1,1.04-.15.12-.02.27-.09.39-.09s.14.09.14.22c0,.17-.12.46-.19,1.57-.02.24-.07,1.3-.12,1.59-.02.12-.07.27-.24.27s-.22-.12-.22-.34c0-.17-.02-.58-.14-.87-.17-.43-.41-.72-1.62-.87-.41-.05-2.95-.09-3.42-.09-.12,0-.17.07-.17.24v6.11c0,.17.02.27.17.27.53,0,3.31,0,3.86-.05.58-.05.94-.12,1.16-.36.17-.2.27-.32.39-.32.1,0,.17.05.17.19s-.1.53-.19,1.76c-.02.48-.09,1.45-.09,1.62,0,.19,0,.46-.22.46-.17,0-.22-.1-.22-.22-.02-.24-.02-.55-.1-.87-.12-.48-.46-.85-1.35-.94-.46-.05-2.85-.07-3.43-.07-.12,0-.14.1-.14.24v1.91c0,.82-.02,3.04,0,3.74.05,1.67.43,2.03,2.9,2.03.63,0,1.64,0,2.27-.29.63-.29.92-.8,1.09-1.79.05-.27.1-.36.27-.36.2,0,.2.19.2.43,0,.56-.2,2.2-.32,2.68-.17.63-.39.63-1.3.63-1.81,0-3.14-.05-4.17-.07-1.04-.05-1.79-.07-2.51-.07-.27,0-.8,0-1.38.02-.55,0-1.18.05-1.67.05-.31,0-.48-.07-.48-.24,0-.12.1-.19.39-.19.36,0,.65-.05.87-.1.48-.09.6-.62.7-1.33.12-1.02.12-2.92.12-5.14v-4.25Z"/>
              <path class="cls-65" d="m129.73,134.95c.07-.41.22-.63.41-.63s.34.12.65.75l6.59,13.42,6.56-13.59c.19-.39.32-.58.53-.58s.36.24.43.75l2.2,14.77c.22,1.52.46,2.22,1.18,2.44.7.22,1.18.24,1.5.24.22,0,.39.02.39.17,0,.19-.29.27-.63.27-.6,0-3.94-.05-4.9-.12-.56-.05-.7-.12-.7-.27,0-.12.1-.19.27-.26.14-.05.22-.36.12-1.04l-1.45-10.5h-.09l-5.26,10.77c-.56,1.13-.68,1.35-.89,1.35s-.46-.48-.85-1.21c-.58-1.11-2.48-4.8-2.77-5.48-.22-.51-1.66-3.35-2.51-5.16h-.09l-1.25,9.41c-.05.43-.08.75-.08,1.14,0,.45.32.67.72.77.44.1.77.12,1.01.12.19,0,.36.05.36.17,0,.22-.22.26-.58.26-1.02,0-2.1-.07-2.53-.07-.46,0-1.62.07-2.39.07-.24,0-.44-.05-.44-.26,0-.12.15-.17.38-.17.2,0,.36,0,.72-.08.68-.14.87-1.08.99-1.9l2.39-15.54Z"/>
              <path class="cls-8" d="m163.68,141.66c0-3.67,0-4.35-.05-5.12-.05-.82-.29-1.23-.82-1.35-.27-.07-.58-.1-.87-.1-.24,0-.38-.05-.38-.24,0-.15.19-.19.58-.19.92,0,2.44.07,3.14.07.6,0,2.03-.07,2.95-.07.31,0,.51.05.51.19,0,.19-.14.24-.38.24s-.44.02-.72.07c-.65.12-.84.53-.89,1.37-.05.77-.05,1.45-.05,5.12v4.25c0,2.34,0,4.25.1,5.28.07.65.24,1.09.96,1.18.34.05.87.1,1.23.1.26,0,.39.07.39.19,0,.17-.19.24-.46.24-1.59,0-3.11-.07-3.76-.07-.55,0-2.08.07-3.04.07-.32,0-.48-.07-.48-.24,0-.12.1-.19.39-.19.36,0,.65-.05.87-.1.48-.09.63-.5.7-1.2.12-1.02.12-2.92.12-5.26v-4.25Z"/>
              <path class="cls-18" d="m183.21,141.66c0-3.67,0-4.35-.05-5.12-.05-.82-.24-1.2-1.04-1.37-.19-.05-.6-.07-.94-.07-.27,0-.41-.05-.41-.22s.17-.22.53-.22c1.28,0,2.8.07,3.53.07.58,0,2.1-.07,2.97-.07.36,0,.53.05.53.22s-.15.22-.39.22c-.27,0-.41.02-.7.07-.65.12-.85.53-.89,1.37-.05.77-.05,1.45-.05,5.12v3.38c0,3.5.7,4.97,1.88,5.94,1.09.89,2.2.99,3.02.99,1.06,0,2.37-.34,3.33-1.3,1.33-1.33,1.4-3.5,1.4-5.98v-3.02c0-3.67,0-4.35-.05-5.12-.05-.82-.24-1.2-1.04-1.37-.19-.05-.6-.07-.87-.07s-.41-.05-.41-.22.17-.22.51-.22c1.23,0,2.75.07,2.78.07.29,0,1.81-.07,2.75-.07.34,0,.51.05.51.22s-.15.22-.43.22c-.27,0-.41.02-.7.07-.65.12-.84.53-.89,1.37-.05.77-.05,1.45-.05,5.12v2.58c0,2.68-.26,5.53-2.29,7.26-1.71,1.47-3.45,1.74-5.02,1.74-1.28,0-3.6-.07-5.36-1.67-1.23-1.11-2.15-2.9-2.15-6.4v-3.53Z"/>
              <path class="cls-35" d="m214.99,134.95c.07-.41.22-.63.41-.63s.34.12.65.75l6.59,13.42,6.57-13.59c.19-.39.31-.58.53-.58s.36.24.44.75l2.2,14.77c.22,1.52.46,2.22,1.18,2.44.7.22,1.19.24,1.5.24.22,0,.39.02.39.17,0,.19-.29.27-.63.27-.6,0-3.93-.05-4.9-.12-.55-.05-.7-.12-.7-.27,0-.12.1-.19.27-.26.15-.05.22-.36.12-1.04l-1.45-10.5h-.1l-5.26,10.77c-.56,1.13-.67,1.35-.89,1.35s-.46-.48-.84-1.21c-.58-1.11-2.48-4.8-2.78-5.48-.22-.51-1.67-3.35-2.51-5.16h-.1l-1.26,9.41c-.05.43-.07.75-.07,1.14,0,.45.31.67.72.77.43.1.77.12,1.01.12.19,0,.36.05.36.17,0,.22-.22.26-.58.26-1.01,0-2.1-.07-2.53-.07-.46,0-1.62.07-2.39.07-.24,0-.43-.05-.43-.26,0-.12.14-.17.38-.17.2,0,.36,0,.72-.08.68-.14.87-1.08.99-1.9l2.39-15.54Z"/>
            </g>
            <g>
              <polygon class="cls-34" points="115.33 102.97 120.8 99.72 126.27 102.96 124.87 96.76 129.64 92.56 123.31 91.97 120.79 86.14 118.27 91.97 111.94 92.57 116.72 96.77 115.33 102.97"/>
              <polygon class="cls-56" points="136.85 104.77 143.48 100.83 150.12 104.76 148.42 97.24 154.22 92.13 146.53 91.42 143.47 84.34 140.42 91.42 132.73 92.14 138.53 97.24 136.85 104.77"/>
              <polygon class="cls-7" points="160.69 102.97 166.16 99.72 171.62 102.96 170.23 96.76 175 92.56 168.68 91.97 166.15 86.14 163.63 91.97 157.31 92.57 162.08 96.77 160.69 102.97"/>
            </g>
            <g>
              <polygon class="cls-19" points="115.33 200.69 120.8 197.45 126.27 200.69 124.87 194.49 129.64 190.29 123.31 189.7 120.79 183.86 118.27 189.7 111.94 190.29 116.72 194.49 115.33 200.69"/>
              <polygon class="cls-63" points="136.85 202.5 143.48 198.56 150.12 202.49 148.42 194.96 154.22 189.86 146.53 189.14 143.47 182.06 140.42 189.14 132.73 189.87 138.53 194.96 136.85 202.5"/>
              <polygon class="cls-48" points="160.69 200.69 166.16 197.45 171.62 200.69 170.23 194.49 175 190.29 168.68 189.7 166.15 183.86 163.63 189.7 157.31 190.29 162.08 194.49 160.69 200.69"/>
            </g>
          </g>
          <path class="cls-66" d="m111.98,145.64c0,.12.05.22.22.22.22,0,.22-.27.22-.46,0-.04,0-.12,0-.22-.14-.07-.31-.13-.51-.17.03.22.05.45.07.62Zm.14-2c.16-.01.27-.04.4-.06.09-1.04.18-1.42.18-1.56,0-.15-.07-.19-.17-.19-.12,0-.22.12-.39.32-.22.24-.58.31-1.16.36-.39.03-1.86.04-2.9.05v.87c0,.17.02.27.17.27.53,0,3.31,0,3.86-.05Zm.19-5.86c0,.22.05.34.22.34s.22-.15.24-.27c.01-.08.02-.22.04-.38-.13-.07-.32-.13-.55-.19.03.2.05.39.05.5Zm12.13,53.06l4.14.38,1.05-.93-5.66-.53.46,1.07Zm-11.15-38.34s.04-.08.06-.14c.12-.48.32-2.12.32-2.68,0-.24,0-.43-.2-.43-.17,0-.22.1-.27.36-.17.99-.46,1.5-1.09,1.79-.63.29-1.64.29-2.27.29-.74,0-1.28-.04-1.69-.13.19,1.01.8,1.26,2.82,1.26.63,0,1.64,0,2.27-.29.02,0,.03-.02.04-.03Zm22.49-.82c.39.72.63,1.21.85,1.21.08,0,.16-.05.24-.16-.62-1.18-2.45-4.73-2.73-5.39-.22-.5-1.67-3.35-2.51-5.16h-.09l-.11.8c.71,1.45,1.43,2.89,1.58,3.23.29.68,2.2,4.37,2.77,5.48Zm14.39,1.02c0-.15-.17-.17-.39-.17-.27,0-.7-.04-1.25-.19.08.25.18.45.29.62.33,0,.6,0,.72,0,.34,0,.63-.07.63-.27Zm-6.23-17.79l-6.28,12.99.82,1.67,4.3-8.8h0l2.27-4.69-.15-1c-.07-.51-.22-.75-.43-.75s-.34.19-.53.58Zm-5.44-37.55l-1.66,7.42,1.6-.95,1.22-5.45-1.16-1.02Zm-21.81-.47l-1.37,6.09,1.6-.95.93-4.12-1.16-1.02Zm30.97,93.4l5.49.51,1.05-.93-7.01-.65.46,1.07Zm-16.85-37.8c-.15,0-.36-.02-.6-.05,0,.09-.01.19-.01.29,0,.07.02.13.03.19.12,0,.24,0,.35,0,.36,0,.58-.05.58-.26,0-.12-.17-.17-.36-.17Zm13.2-10.57h-.09l-.69,1.41,1.1,7.96c.1.68.02.99-.12,1.04-.17.07-.27.15-.27.26,0,.15.15.22.7.27.2.01.51.03.86.04,0-.13-.01-.29-.04-.48l-1.45-10.5Zm3.65-49.35l5.49.51,1.05-.93-7.01-.65.46,1.07Zm48.31,43.75s-.09-.01-.13-.02c.01.09.03.16.03.26.05.77.05,1.45.05,5.12v3.02c0,2.48-.07,4.66-1.4,5.98-.97.97-2.27,1.3-3.33,1.3-.75,0-1.75-.11-2.74-.81.25.37.53.69.86.95,1.08.89,2.19.99,3.01.99,1.11-.19,2.26-.61,3.41-1.59.2-.17.37-.36.54-.55.73-1.32.79-3.13.79-5.15v-3.02c0-3.67,0-4.35-.05-5.11-.05-.82-.24-1.21-1.04-1.38Zm34.19-1.23c-.08-.51-.22-.75-.44-.75s-.34.19-.53.58l-6.28,12.99.82,1.67,4.3-8.8h0l2.27-4.69-.15-1Zm4.87,17.45c-.27,0-.7-.04-1.26-.19.08.25.18.45.29.62.33,0,.59,0,.72,0,.34,0,.63-.07.63-.27,0-.15-.17-.17-.39-.17Zm-65.24-59.41l4.14.38,1.05-.93-5.66-.52.46,1.07Zm-28.26-.55l2.74-6.34-.81-1.88-3.06,7.08-7.69.72,1.28,1.12,7.54-.71Zm58.05,42.11c-.94,0-2.46.07-2.75.07-.02,0-1.55-.07-2.78-.07-.34,0-.51.05-.51.22s.14.22.41.22.68.02.87.07c.49.1.74.31.88.63,1.1.01,2.24.07,2.26.07.04,0,.12,0,.21,0,.12-.38.34-.61.78-.69.29-.05.44-.07.7-.07.29,0,.43-.05.43-.22s-.17-.22-.51-.22Zm-30.88.19c0-.15-.19-.19-.51-.19-.92,0-2.34.07-2.95.07-.7,0-2.22-.07-3.14-.07-.39,0-.58.05-.58.19,0,.19.15.24.38.24.29,0,.61.02.87.1.33.08.54.28.67.6.93.01,2.28.07,2.93.07.11,0,.27,0,.43,0,.12-.38.34-.61.78-.69.29-.05.48-.07.72-.07s.38-.05.38-.24Zm-5.16,16.32c-.07.7-.22,1.11-.7,1.2-.22.05-.51.1-.87.1-.29,0-.39.07-.39.19,0,.17.17.24.48.24.74,0,1.8-.04,2.51-.06.04-.16.07-.33.1-.54.12-1.01.12-2.92.12-5.26v-4.25c0-3.67,0-4.35-.05-5.11-.05-.82-.29-1.23-.82-1.35-.11-.03-.23-.02-.35-.04.01.09.03.16.04.26.05.77.05,1.45.05,5.12v4.25c0,2.34,0,4.25-.12,5.26Zm1.21-58.06l2.2-5.09-.81-1.88-2.52,5.83-6.33.59,1.27,1.12,6.19-.58Zm4.19,59.37c-.31,0-.72-.04-1.05-.08.02.19.07.36.12.5.28,0,.56,0,.85,0,.27,0,.46-.07.46-.24,0-.12-.12-.19-.39-.19Zm.84,38.36l4.14.38,1.05-.93-5.66-.53.46,1.07Zm-7.51-88.82l.93-4.12-1.16-1.02-1.37,6.09,1.6-.95Zm66.98,39.88h-.1l-.69,1.41,1.1,7.96c.1.68.02.99-.12,1.04-.17.07-.27.15-.27.26,0,.15.14.22.7.27.2.01.51.03.86.04,0-.13-.01-.29-.04-.48l-1.45-10.5Zm-113.95,58.79l1.6-.95.93-4.12-1.16-1.02-1.37,6.09Zm25.09-11.55l-7.69.72,1.28,1.12,7.54-.71,2.74-6.34-.81-1.88-3.06,7.08Zm23.22.55l-6.33.59,1.27,1.12,6.19-.58,2.2-5.09-.81-1.88-2.52,5.83Zm-26.79,12.8l1.6-.95,1.22-5.45-1.16-1.02-1.66,7.42Zm-18.57-12.8l-6.33.59,1.28,1.12,6.19-.58,2.2-5.09-.81-1.88-2.52,5.83Zm-14.31-53.4s-.09-.01-.13-.02c.01.09.03.16.03.26.05.77.05,1.45.05,5.12v4.25c0,2.22,0,4.12-.12,5.14-.09.7-.22,1.23-.7,1.33-.22.05-.51.1-.87.1-.29,0-.39.07-.39.19,0,.17.17.24.48.24.48,0,1.11-.05,1.67-.05.29-.01.57-.02.81-.02.05-.19.1-.41.13-.66.12-1.02.12-2.92.12-5.14v-4.25c0-3.67,0-4.35-.05-5.11-.05-.82-.24-1.21-1.04-1.38Zm112.35-.7l-.26-.53c-.32-.63-.46-.75-.65-.75s-.34.22-.41.63l-2.39,15.54c-.12.82-.32,1.76-.99,1.9-.36.08-.53.08-.72.08-.24,0-.38.05-.38.17,0,.22.19.26.43.26.77,0,1.93-.07,2.39-.07.03,0,.08,0,.12,0,.15-.36.23-.8.29-1.21l2.39-15.55c.04-.23.11-.38.19-.48Zm-.24,16.87c-.15,0-.36-.02-.59-.05,0,.09,0,.19,0,.29,0,.07.02.13.03.19.12,0,.23,0,.35,0,.36,0,.58-.05.58-.26,0-.12-.17-.17-.36-.17Zm-55.38,48.22l1.6-.95.93-4.12-1.16-1.02-1.37,6.09Zm-47.76-64.88c.07-.72.15-.98.15-1.12,0-.12-.03-.22-.14-.22s-.27.07-.39.09c-.19.05-.58.1-1.04.15-.46.02-5.26.02-6.03.02-.34,0-.89-.02-1.52-.05-.6,0-1.3-.02-1.95-.02-.36,0-.53.05-.53.22s.14.22.41.22c.34,0,.75.02.94.07.49.1.74.31.88.63.48,0,.96.02,1.38.02.63.02,1.19.05,1.52.05.77,0,5.57,0,6.03-.02.1-.01.19-.02.28-.03Zm13.41,16.59c-.36.08-.53.08-.72.08-.24,0-.38.05-.38.17,0,.22.19.26.44.26.77,0,1.93-.07,2.39-.07.03,0,.08,0,.12,0,.15-.36.23-.8.29-1.21l2.39-15.55c.04-.23.11-.38.19-.48l-.26-.53c-.32-.63-.46-.75-.65-.75s-.34.22-.41.63l-2.39,15.54c-.12.82-.32,1.76-.99,1.9Zm61.45-17.74c-.87,0-2.39.07-2.97.07-.72,0-2.25-.07-3.53-.07-.36,0-.53.05-.53.22s.14.22.41.22c.34,0,.75.02.94.07.49.1.74.31.88.63,1.13.01,2.34.06,2.96.06.12,0,.31,0,.5,0,.12-.38.34-.61.77-.69.29-.05.43-.07.7-.07.24,0,.39-.05.39-.22s-.17-.22-.53-.22Zm-3.45,8.13c0-3.67,0-4.35-.05-5.11-.05-.82-.24-1.21-1.04-1.38-.03,0-.09-.01-.13-.02.01.09.03.16.03.26.05.77.05,1.45.05,5.12v3.53c0,3.5.92,5.28,2.15,6.4.13.11.26.2.39.3-.84-1.13-1.4-2.82-1.4-5.56v-3.53Zm32.55-.62h-.1l-.11.8c.71,1.45,1.43,2.89,1.58,3.23.29.68,2.2,4.37,2.78,5.48.39.72.63,1.21.84,1.21.08,0,.16-.05.24-.16-.62-1.19-2.45-4.73-2.73-5.39-.22-.5-1.66-3.35-2.51-5.16Zm-159.14-4.72c.68,1.05.74,2.19.74,2.81,0,2.46-1.88,3.98-3.24,3.98-.34,0-.52.04-.6.12v.27c.06.05.14.08.22.1.12.02.38.02.51.02,1.42,0,2.66-.43,3.65-1.16.35-.61.59-1.34.59-2.2,0-.8-.07-2.41-1.42-3.62-.15-.14-.3-.23-.45-.33Zm26.24,7.3c-.09-.12-.17-.22-.27-.34.43-.35.79-.69,1.13-1.03.2-.54.35-1.2.35-2.04,0-2.1-.85-3.28-1.84-3.88.42.66.71,1.55.71,2.75,0,1.98-.7,3.09-1.42,3.62-.43.31-.75.41-1.71.41-.29,0-.61-.02-.92-.06v.51c0,.26.05.36.22.43.51.17,1.23.24,1.83.24.97,0,1.28-.1,1.71-.41.08-.05.15-.15.22-.21Zm8.35,7.72c-.19,0-.41-.02-.67-.08-.3-.06-1.03-.19-2.04-1.02.15.17.32.36.47.52.44.46.85.78,1.2,1.02h.87c.29,0,.46-.05.46-.24,0-.12-.1-.19-.29-.19Zm-11.22,0c-.24,0-.62-.04-.96-.07.02.19.07.35.13.5.22,0,.43,0,.64,0,.31,0,.48-.07.48-.24,0-.12-.1-.19-.29-.19Zm47.46-58.98l1.05-.93-5.66-.52.46,1.07,4.14.38Zm-10.31-1.52l-6.33.59,1.28,1.12,6.19-.58,2.2-5.09-.81-1.88-2.52,5.83Zm-37.61,43.85c.51-.02,1-.03,1.3-.03,1.45,0,2.97.15,4.25.94-.3-.46-.64-.83-.94-1.03-1.31-.9-2.92-1.04-4.44-1.04-.75,0-2.58.07-3.4.07-.51,0-2.03-.07-3.31-.07-.36,0-.53.05-.53.22s.15.22.41.22c.34,0,.75.02.94.07.49.1.74.31.88.63,1.13.01,2.31.06,2.74.06.2,0,.47,0,.77,0,.25-.04.58-.06,1.04-.06.09,0,.19.02.29.03Zm-4.59.48s-.09-.01-.13-.02c.01.09.03.16.03.26.05.77.05,1.45.05,5.12v4.25c0,2.22,0,4.12-.12,5.14-.1.7-.22,1.23-.7,1.33-.22.05-.51.1-.87.1-.29,0-.39.07-.39.19,0,.17.17.24.48.24.74,0,1.81-.04,2.47-.06.05-.2.1-.41.14-.66.12-1.02.12-2.92.12-5.14v-4.25c0-3.67,0-4.35-.05-5.11-.05-.82-.24-1.21-1.04-1.38Zm6.66,10.41c-.12-.14-.26-.17-.42-.17.48.68,1.1,1.57,1.68,2.36,1.07,1.47,1.86,2.47,2.66,3.1-.46-.54-.95-1.18-1.53-1.97-.96-1.32-2.07-2.97-2.39-3.33Zm-27.12-12.04c-1.11,0-2.51.07-3.5.07-.68,0-2.2-.07-3.47-.07-.36,0-.53.05-.53.22s.15.22.41.22c.34,0,.75.02.94.07.5.1.74.31.88.63,1.13.01,2.33.06,2.91.06.12,0,.26,0,.4,0,.02-.02.04-.06.06-.07.22-.07.58-.1.94-.1.22,0,.52.04.85.12.43-.01.86-.02,1.25-.02,2.07,0,3.22.47,3.87.89-.17-.26-.34-.49-.51-.65-.39-.36-1.47-1.37-4.49-1.37Zm.19,17.81c-.3,0-.68-.04-1.01-.07.03.18.07.35.13.5.27,0,.53,0,.81,0s.46-.07.46-.24c0-.12-.12-.19-.38-.19Zm-5.21-16.17s-.09-.01-.13-.02c0,.09.03.16.03.26.05.77.05,1.45.05,5.12v4.25c0,2.22,0,4.12-.12,5.14-.1.7-.22,1.23-.7,1.33-.22.05-.51.1-.87.1-.29,0-.38.07-.38.19,0,.17.17.24.48.24.73,0,1.76-.04,2.47-.06.06-.2.1-.41.14-.66.12-1.02.12-2.92.12-5.14v-4.25c0-3.67,0-4.35-.05-5.11-.05-.82-.24-1.21-1.04-1.38Z"/>
        </g>
        <path class="cls-46" d="m159.42,114.46c-.06,10.1-28.13,18.12-62.69,17.91-34.56-.21-62.53-8.57-62.47-18.68.06-10.1,28.13-18.12,62.69-17.91,34.56.21,62.53,8.57,62.47,18.68Z"/>
        <path class="cls-13" d="m266.98,174.75c-.06,10.1-28.13,18.12-62.69,17.91-34.56-.21-62.53-8.57-62.47-18.68.06-10.1,28.13-18.12,62.69-17.91,34.56.21,62.53,8.57,62.47,18.68Z"/>
      </g>
    </g>
  </g>
</svg>