<svg width="64" height="64" viewBox="0 0 64 64" fill="none" xmlns="http://www.w3.org/2000/svg">
<path d="M31.9867 0.553722L0 0V2.27383L31.9867 1.72011L64 1.16639V1.10744L31.9867 0.553722Z" fill="#6100FF"/>
<path d="M31.9867 2.92661L0 2.41397V4.60564L31.9867 4.093L64 3.58393V3.43746L31.9867 2.92661Z" fill="#6100FF"/>
<path d="M31.9867 5.29774L0 4.82797V6.93569L31.9867 6.46413L64 5.99972V5.76394L31.9867 5.29774Z" fill="#6100FF"/>
<path d="M31.9867 7.67844L0 7.24976V9.2753L31.9867 8.84483L64 8.42329V8.09999L31.9867 7.67844Z" fill="#6100FF"/>
<path d="M31.9867 10.0513L0 9.66373V11.6071L31.9867 11.2177L64 10.8408V10.43L31.9867 10.0513Z" fill="#6100FF"/>
<path d="M31.9867 12.4242L0 12.0777V13.9389L31.9867 13.5906L64 13.2566V12.76L31.9867 12.4242Z" fill="#6100FF"/>
<path d="M31.9867 14.7953L0 14.4917V16.2672L31.9867 15.9617L64 15.6723V15.0865L31.9867 14.7953Z" fill="#6100FF"/>
<path d="M31.9867 17.1682L0 16.9056V18.599L31.9867 18.3364L64 18.0881V17.4165L31.9867 17.1682Z" fill="#6100FF"/>
<path d="M31.9867 19.5489L0 19.3275V20.9368L31.9867 20.7153L64 20.5099V19.7526L31.9867 19.5489Z" fill="#6100FF"/>
<path d="M31.9867 21.92L0 21.7414V23.2668L31.9867 23.0882L64 22.9257V22.0826L31.9867 21.92Z" fill="#6100FF"/>
<path d="M31.9867 24.2929L0 24.1554V25.5951L31.9867 25.4593L64 25.3396V24.4108L31.9867 24.2929Z" fill="#6100FF"/>
<path d="M31.9867 26.6718L0 26.5772V27.9329L31.9867 27.8382L64 27.7614V26.7469L31.9867 26.6718Z" fill="#6100FF"/>
<path d="M31.9867 29.0448L0 28.9912V30.2629L31.9867 30.2111L64 30.1772V29.0769L31.9867 29.0448Z" fill="#6100FF"/>
<path d="M31.9867 31.4159L0 31.4052V32.5912L31.9867 32.5823L64 32.5912V31.4052L31.9867 31.4159Z" fill="#6100FF"/>
<path d="M31.9867 33.7868L0 33.8189V34.921L31.9867 34.9532L64 35.005V33.7332L31.9867 33.7868Z" fill="#6100FF"/>
<path d="M31.9867 36.1637L0 36.2387V37.2551L31.9867 37.3301L64 37.4248V36.069L31.9867 36.1637Z" fill="#6100FF"/>
<path d="M31.9867 38.5346L0 38.6525V39.5831L31.9867 39.701L64 39.8385V38.3971L31.9867 38.5346Z" fill="#6100FF"/>
<path d="M31.9867 40.9133L0 41.0741V41.919L31.9867 42.0797L64 42.2584V40.7329L31.9867 40.9133Z" fill="#6100FF"/>
<path d="M31.9867 43.2825L0 43.4861V44.2452L31.9867 44.4489L64 44.6703V43.061L31.9867 43.2825Z" fill="#6100FF"/>
<path d="M31.9867 45.6594L0 45.9059V46.5775L31.9867 46.8258L64 47.0902V45.3969L31.9867 45.6594Z" fill="#6100FF"/>
<path d="M31.9867 48.0303L0 48.3215V48.9056L31.9867 49.1967L64 49.5022V47.7249L31.9867 48.0303Z" fill="#6100FF"/>
<path d="M31.9867 50.4073L0 50.7413V51.2396L31.9867 51.5736L64 51.9202V50.0607L31.9867 50.4073Z" fill="#6100FF"/>
<path d="M31.9867 52.7782L0 53.1569V53.5677L31.9867 53.9446L64 54.334V52.3888L31.9867 52.7782Z" fill="#6100FF"/>
<path d="M31.9867 55.1551L0 55.5766V55.8999L31.9867 56.3215L64 56.752V54.7246L31.9867 55.1551Z" fill="#6100FF"/>
<path d="M31.9867 57.5242L0 57.9904V58.2262L31.9867 58.6906L64 59.1622V57.0527L31.9867 57.5242Z" fill="#6100FF"/>
<path d="M31.9867 59.9012L0 60.4102V60.5585L31.9867 61.0675L64 61.5802V59.3885L31.9867 59.9012Z" fill="#6100FF"/>
<path d="M31.9867 62.2781L0 62.8318V62.8925L31.9867 63.4445L64 64V61.7244L31.9867 62.2781Z" fill="#6100FF"/>
</svg>
