<svg width="602" height="602" viewBox="0 0 602 602" fill="none" xmlns="http://www.w3.org/2000/svg">
<path opacity="0.7" d="M376.604 119.684L460.63 35.6572L566.342 141.37L482.316 225.396L481.462 226.25H482.669H601.5V375.75H482.671H481.464L482.318 376.604L566.342 460.628L460.63 566.341L376.604 482.315L375.75 481.461V482.668V601.5H226.25V482.67V481.463L225.396 482.316L141.371 566.341L35.6583 460.628L119.683 376.604L120.537 375.75H119.33H0.5V226.25H119.332H120.539L119.685 225.396L35.6587 141.37L141.371 35.6572L225.396 119.682L226.25 120.536V119.329V0.5H375.75V119.33V120.537L376.604 119.684Z" stroke="#6100FF"/>
</svg>
